<?xml version="1.0" standalone="no"?>
<!DOCTYPE svg PUBLIC "-//W3C//DTD SVG 1.1//EN" "http://www.w3.org/Graphics/SVG/1.1/DTD/svg11.dtd" >
<svg xmlns="http://www.w3.org/2000/svg">
<metadata>Generated by IcoMoon</metadata>
<defs>
<font id="icomoon" horiz-adv-x="1024">
<font-face units-per-em="1024" ascent="960" descent="-64" />
<missing-glyph horiz-adv-x="1024" />
<glyph unicode="&#x20;" horiz-adv-x="512" d="" />
<glyph unicode="&#xe900;" glyph-name="add" d="M546.667 757.333h-69.333v-274.667h-274.667v-69.333h274.667v-274.667h69.333v274.667h274.667v69.333h-274.667z" />
<glyph unicode="&#xe901;" glyph-name="alert" d="M512 810.667c-200.295 0-362.667-162.371-362.667-362.667s162.371-362.667 362.667-362.667c200.295 0 362.667 162.371 362.667 362.667v0c0 200.295-162.371 362.667-362.667 362.667v0zM472 648h80v-240h-80zM512 235.947c-28.748 0-52.053 23.305-52.053 52.053s23.305 52.053 52.053 52.053c28.748 0 52.053-23.305 52.053-52.053v0c0-0.032 0-0.069 0-0.107 0-28.689-23.257-51.947-51.947-51.947-0.038 0-0.075 0-0.113 0h0.006z" />
<glyph unicode="&#xe902;" glyph-name="all-mail" d="M718.187 688.64c19.028 0 34.453-15.425 34.453-34.453v-103.040h-107.947c-16.152-0.387-29.581-11.597-33.335-26.638l-0.051-0.242c-12.162-44.212-52.004-76.153-99.307-76.153s-87.145 31.94-99.137 75.43l-0.17 0.722c-3.806 15.283-17.234 26.493-33.344 26.879l-0.042 0.001h-107.947v103.040c0 19.028 15.425 34.453 34.453 34.453v0zM271.36 757.333c-37.89-0.121-68.572-30.804-68.693-68.682v-240.652c0.121-37.89 30.804-68.572 68.682-68.693h481.292c37.89 0.121 68.572 30.804 68.693 68.682v240.652c-0.121 37.89-30.804 68.572-68.682 68.693h-0.012zM237.013 310.507c-18.945-0.060-34.286-15.402-34.347-34.341v-68.806c0.121-37.89 30.804-68.572 68.682-68.693h481.292c37.89 0.121 68.572 30.804 68.693 68.682v68.812c-0.060 18.945-15.402 34.286-34.341 34.347h-141.979c-16.381-0.508-29.949-11.966-33.657-27.276l-0.050-0.244c-12.445-43.919-52.181-75.555-99.307-75.555s-86.862 31.636-99.13 74.829l-0.176 0.726c-3.758 15.554-17.325 27.012-33.652 27.519l-0.055 0.001z" />
<glyph unicode="&#xe903;" glyph-name="all" d="M718.187 688.64c19.028 0 34.453-15.425 34.453-34.453v-103.040h-107.947c-16.152-0.387-29.581-11.597-33.335-26.638l-0.051-0.242c-12.162-44.212-52.004-76.153-99.307-76.153s-87.145 31.94-99.137 75.43l-0.17 0.722c-3.806 15.283-17.234 26.493-33.344 26.879l-0.042 0.001h-107.947v103.040c0 19.028 15.425 34.453 34.453 34.453v0zM271.36 757.333c-37.89-0.121-68.572-30.804-68.693-68.682v-240.652c0.121-37.89 30.804-68.572 68.682-68.693h481.292c37.89 0.121 68.572 30.804 68.693 68.682v240.652c-0.121 37.89-30.804 68.572-68.682 68.693h-0.012zM237.013 310.507c-18.945-0.060-34.286-15.402-34.347-34.341v-68.806c0.121-37.89 30.804-68.572 68.682-68.693h481.292c37.89 0.121 68.572 30.804 68.693 68.682v68.812c-0.060 18.945-15.402 34.286-34.341 34.347h-141.979c-16.381-0.508-29.949-11.966-33.657-27.276l-0.050-0.244c-12.445-43.919-52.181-75.555-99.307-75.555s-86.862 31.636-99.13 74.829l-0.176 0.726c-3.758 15.554-17.325 27.012-33.652 27.519l-0.055 0.001z" />
<glyph unicode="&#xe904;" glyph-name="archive" d="M398.187 180.053l-227.52 227.52 80.213 80.213 147.307-146.453 374.933 374.613 80.213-80.747z" />
<glyph unicode="&#xe905;" glyph-name="arrow-dropdown" d="M725.333 607.467l-217.387-319.467-209.28 320 426.667-0.533z" />
<glyph unicode="&#xe906;" glyph-name="arrow" d="M789.333 488.533h-455.893l199.040 198.933c7.359 7.435 11.906 17.667 11.906 28.96s-4.547 21.525-11.91 28.963l0.003-0.003c-7.355 7.36-17.519 11.913-28.747 11.913s-21.391-4.553-28.746-11.913l-268.694-268.694c-7.354-7.338-11.904-17.484-11.904-28.693s4.55-21.355 11.903-28.693l268.694-268.694c7.357-7.357 17.52-11.907 28.747-11.907 22.453 0 40.654 18.201 40.654 40.654 0 11.226-4.55 21.39-11.907 28.747l-199.040 198.933h455.893c22.504 0 40.747 18.243 40.747 40.747s-18.243 40.747-40.747 40.747v0z" />
<glyph unicode="&#xe907;" glyph-name="attachment-calendar" d="M823.040 764.16h-110.507v110.507h-73.707v-110.507h-221.12v110.507h-73.707v-110.507h-110.507c-40.567-0.241-73.373-33.123-73.493-73.695v-552.759c0.12-40.584 32.927-73.465 73.47-73.707h589.57c40.658 0.121 73.586 33.048 73.707 73.695v552.759c-0.121 40.658-33.048 73.586-73.695 73.707h-0.012zM823.040 137.707h-589.547v405.333h589.547z" />
<glyph unicode="&#xe908;" glyph-name="attachment-code" d="M810.667 832h-597.333c-47.128 0-85.333-38.205-85.333-85.333v0-597.333c0-47.128 38.205-85.333 85.333-85.333v0h597.333c47.128 0 85.333 38.205 85.333 85.333v0 597.333c0 47.128-38.205 85.333-85.333 85.333v0zM416 334.72c5.237-5.184 8.48-12.373 8.48-20.32s-3.243-15.136-8.477-20.318l-0.002-0.002c-5.189-5.269-12.4-8.534-20.373-8.534s-15.185 3.265-20.37 8.53l-0.004 0.004-133.013 133.547c-5.229 5.247-8.462 12.486-8.462 20.48s3.233 15.233 8.463 20.481l133.226 133.332c4.976 4.216 11.47 6.779 18.562 6.779 15.906 0 28.8-12.894 28.8-28.8 0-7.118-2.583-13.634-6.862-18.66l0.034 0.041-113.067-113.28zM781.547 427.627l-133.013-133.547c-4.976-4.216-11.47-6.779-18.562-6.779-15.906 0-28.8 12.894-28.8 28.8 0 7.118 2.583 13.634 6.862 18.66l-0.034-0.041 113.067 113.28-113.067 113.28c-5.237 5.184-8.48 12.373-8.48 20.32s3.243 15.136 8.477 20.318l0.002 0.002c5.189 5.269 12.4 8.534 20.373 8.534s15.185-3.265 20.37-8.53l133.231-133.337c5.166-5.236 8.356-12.432 8.356-20.373 0-8.047-3.276-15.33-8.568-20.585l-0.002-0.002z" />
<glyph unicode="&#xe909;" glyph-name="attachment-doc" d="M550.4 779.733l211.2-211.2h-172.8c-21.183 0.060-38.34 17.217-38.4 38.394v172.806zM281.6 837.333c-42.367-0.121-76.679-34.433-76.8-76.788v-614.412c0-0.032 0-0.070 0-0.107 0-42.244 34.155-76.511 76.356-76.693h461.244c42.367 0.121 76.679 34.433 76.8 76.788v428.919c0 0.080 0 0.174 0 0.269 0 21.141-8.65 40.262-22.605 54.016l-0.009 0.009-185.173 185.387c-13.947 13.959-33.216 22.599-54.504 22.613h-0.003z" />
<glyph unicode="&#xe90a;" glyph-name="attachment-img" d="M885.333 157.653v580.693c-0.121 45.784-37.203 82.866-82.975 82.987h-580.705c-45.784-0.121-82.866-37.203-82.987-82.975v-580.705c0.121-45.784 37.203-82.866 82.975-82.987h580.705c45.784 0.121 82.866 37.203 82.987 82.975v0.012zM383.36 365.867l87.147-104.96 128.64 165.76c3.942 4.846 9.906 7.917 16.587 7.917s12.644-3.071 16.556-7.878l0.031-0.039 145.6-194.133c2.613-3.427 4.187-7.77 4.187-12.48 0-11.429-9.265-20.693-20.693-20.693-0.047 0-0.094 0-0.141 0h-497.38c-11.399 0.039-20.625 9.289-20.625 20.693 0 4.9 1.703 9.402 4.55 12.947l-0.031-0.040 103.253 132.693c3.781 4.889 9.648 8.006 16.243 8.006 6.5 0 12.293-3.028 16.045-7.751l0.032-0.042z" />
<glyph unicode="&#xe90b;" glyph-name="attachment-pass" d="M414.187 291.52v312.96c0.061 43.194 35.091 78.187 78.293 78.187 0 0 0 0 0 0h352v39.147c-0.181 43.146-35.139 78.066-78.282 78.187h-547.532c-43.181 0-78.187-35.005-78.187-78.187v0-547.627c0-43.181 35.005-78.187 78.187-78.187v0h547.52c43.154 0.121 78.112 35.041 78.293 78.169v39.164h-352c0 0 0 0 0 0-43.203 0-78.232 34.992-78.293 78.181v0.006zM531.52 604.48c-21.55-0.121-38.98-17.588-39.040-39.141v-234.673c0.060-21.558 17.49-39.026 39.029-39.147h352.011v312.96zM648.853 389.333c-32.401 0-58.667 26.266-58.667 58.667s26.266 58.667 58.667 58.667c32.401 0 58.667-26.266 58.667-58.667v0c0-32.401-26.266-58.667-58.667-58.667v0z" />
<glyph unicode="&#xe90c;" glyph-name="attachment-pdf" d="M237.333 36.053c-7.096 0.018-13.966 0.951-20.509 2.687l0.562-0.127c-31.846 8.929-56.039 34.509-62.831 66.518l-0.102 0.575c-7.68 35.733 6.507 71.147 38.933 97.173 25.92 21.12 82.453 47.467 144.747 73.387 7.893 22.827 16.427 47.147 25.067 72.107 25.813 73.92 54.613 156.693 77.76 229.867-38.507 60.48-69.44 118.613-75.733 156.587-1.127 5.521-1.773 11.867-1.773 18.363 0 31.794 15.456 59.978 39.265 77.449l0.268 0.188c15.715 11.239 35.323 17.97 56.503 17.97 16.332 0 31.729-4.003 45.263-11.080l-0.539 0.257c29.867-16.427 45.973-48 44.053-86.72-1.707-35.947-16.427-94.613-37.333-163.52 47.147-71.147 104.427-147.627 144-197.12 113.067 31.573 166.4 15.36 190.72-6.613 15.787-13.973 32-40.427 21.333-86.613-11.84-49.707-40-66.133-61.653-71.253-68.16-15.893-147.413 64-172.053 90.773-8.96-2.88-18.027-6.080-27.413-9.6-46.613-15.68-135.573-47.253-216.107-79.467-9.387-28.587-37.227-103.36-85.333-158.933-16-19.677-40.019-32.3-67.002-32.852l-0.092-0.001zM306.773 192.853c-28.096-11.77-52.233-25.172-74.665-40.846l1.278 0.846c-13.227-10.667-18.88-22.187-16.427-33.707 1.756-8.787 8.034-15.773 16.254-18.51l0.172-0.050c7.147-1.813 14.613 1.707 22.293 10.667 19.781 23.579 36.869 50.436 50.182 79.388l0.912 2.212zM704 336.533c33.28-30.507 70.187-51.84 86.827-47.787 7.787 1.813 12.16 15.573 14.080 23.68s3.733 19.307-1.387 23.893c-11.413 9.813-47.147 11.2-99.52 0.213zM486.293 510.293c-19.627-59.627-41.6-122.773-62.613-182.933-2.347-6.72-4.587-13.333-6.933-19.84 79.573 30.507 152.107 55.147 167.573 60.373l5.867 2.133c-26.987 34.56-65.92 85.76-103.893 140.267zM460.267 785.28c-7.585-0.059-14.602-2.445-20.384-6.478l0.118 0.078c-7.693-5.905-12.603-15.105-12.603-25.451 0-2.936 0.395-5.779 1.136-8.48l-0.052 0.225c3.093-19.413 17.067-49.28 37.013-84.16 8.51 26.95 15.158 58.718 18.685 91.422l0.195 2.231c0.64 13.867-2.987 23.147-10.667 27.52-3.701 1.955-8.089 3.102-12.745 3.102-0.244 0-0.488-0.003-0.731-0.009l0.036 0.001z" />
<glyph unicode="&#xe90d;" glyph-name="attachment-ppt" d="M453.76 780.16c-188.523-13.352-336.404-169.568-336.404-360.323 0-199.471 161.703-361.173 361.173-361.173 0.517 0 1.034 0.001 1.55 0.003h-0.080c191.36 0 347.733 142.613 359.36 342.933 0.019 0.35 0.030 0.761 0.030 1.173 0 12.521-10.129 22.676-22.64 22.72h-338.884v331.84c0 0.044 0 0.097 0 0.149 0 12.548-10.172 22.72-22.72 22.72-0.488 0-0.972-0.015-1.453-0.046l0.066 0.003zM556.8 825.387c0-79.147 0-333.227 0-333.227h337.92c0.019 0 0.042 0 0.065 0 12.489 0 22.613 10.124 22.613 22.613 0 0.601-0.023 1.196-0.069 1.785l0.005-0.078c-15.068 178.381-157.503 319.124-335.294 331.457l-1.132 0.063c-0.447 0.031-0.968 0.049-1.493 0.049-12.489 0-22.613-10.124-22.613-22.613 0-0.017 0-0.035 0-0.052v0.003z" />
<glyph unicode="&#xe90e;" glyph-name="attachment-video" d="M758.507 526.187v157.653c-0.061 24.836-20.178 44.953-45.008 45.013h-540.486c-24.836-0.061-44.953-20.178-45.013-45.008v-450.353c0.061-24.836 20.178-44.953 45.008-45.013h540.486c24.836 0.061 44.953 20.178 45.013 45.008v157.659l103.147-103.147c8.165-8.070 19.394-13.055 31.787-13.055 24.918 0 45.129 20.151 45.226 45.045v277.342c0 0.025 0 0.055 0 0.084 0 24.919-20.201 45.12-45.12 45.12-12.454 0-23.729-5.046-31.894-13.204v0z" />
<glyph unicode="&#xe90f;" glyph-name="attachment-xls" d="M874.667 737.28c-5.905 8.969-15.922 14.811-27.304 14.827h-669.655c-0.025 0-0.054 0-0.083 0-10.573 0-19.949-5.128-25.775-13.032l-0.062-0.088c-7.992-5.888-13.12-15.264-13.12-25.837 0-0.029 0-0.058 0-0.088v0.005-516.48c0-0.025 0-0.054 0-0.083 0-10.573 5.128-19.949 13.032-25.775l0.088-0.062c5.888-7.992 15.264-13.12 25.837-13.12 0.029 0 0.058 0 0.088 0h669.328c19.993 3.166 35.516 18.942 38.266 38.801l0.027 0.239v516.48c0 0.009 0 0.020 0 0.030 0 9.566-4.102 18.174-10.642 24.161l-0.025 0.022zM203.52 510.613h173.227v-111.573h-173.227zM441.6 510.613h378.88v-111.573h-378.88zM820.48 576h-378.88v111.253h378.88zM376.747 576h-173.227v111.253h173.227zM203.52 334.080h173.227v-111.68h-173.227zM441.6 334.080h378.88v-111.68h-378.88z" />
<glyph unicode="&#xe910;" glyph-name="attachment-zip" d="M504 285.227c-11.324-2.976-20.064-11.716-22.99-22.817l-0.050-0.223c-0.658-2.423-1.036-5.205-1.036-8.076 0-17.673 14.327-32 32-32 2.87 0 5.653 0.378 8.3 1.087l-0.224-0.051c11.324 2.976 20.064 11.716 22.99 22.817l0.050 0.223c0.658 2.423 1.036 5.205 1.036 8.076 0 17.673-14.327 32-32 32-2.87 0-5.653-0.378-8.3-1.087l0.224 0.051zM777.493 832h-530.987c-41.707 0-75.84-38.4-75.84-85.333v-597.333c0-46.933 34.133-85.333 75.84-85.333h530.987c41.707 0 75.84 38.4 75.84 85.333v597.333c0 46.933-34.133 85.333-75.84 85.333zM506.987 809.493l31.253 1.173c5.891 0 10.667-4.776 10.667-10.667v0-18.987c-0.096-5.817-4.834-10.497-10.665-10.497-1.964 0-3.804 0.531-5.385 1.457l0.050-0.027-30.827 17.387c-3.473 1.807-5.803 5.378-5.803 9.493 0 5.891 4.776 10.667 10.667 10.667 0.015 0 0.030 0 0.046 0h-0.002zM533.333 519.253l-47.253 26.773c-3.050 1.913-5.048 5.256-5.048 9.067s1.998 7.154 5.003 9.041l0.044 0.026 47.253 26.88c1.53 0.899 3.37 1.429 5.334 1.429 5.868 0 10.63-4.739 10.666-10.599v-53.336c0-0.013 0-0.028 0-0.042 0-5.891-4.776-10.667-10.667-10.667-1.964 0-3.803 0.531-5.384 1.456l0.050-0.027zM549.333 456.107v-18.773c0-5.891-4.776-10.667-10.667-10.667v0l-31.253 1.173c-5.523 0.444-9.836 5.036-9.836 10.634 0 3.761 1.947 7.068 4.888 8.967l0.042 0.025 30.827 17.707c1.53 0.899 3.37 1.43 5.335 1.43 5.831 0 10.57-4.679 10.665-10.488v-0.009zM533.333 645.013l-47.253 26.987c-3.099 1.903-5.135 5.274-5.135 9.12s2.036 7.217 5.088 9.094l0.046 0.026 47.253 26.56c1.53 0.899 3.37 1.43 5.335 1.43 5.831 0 10.57-4.679 10.665-10.488v-53.342c0.001-0.045 0.001-0.097 0.001-0.15 0-5.891-4.776-10.667-10.667-10.667-1.964 0-3.804 0.531-5.385 1.457l0.050-0.027zM464 770.667c0.096 5.817 4.834 10.497 10.665 10.497 1.964 0 3.804-0.531 5.385-1.457l-0.050 0.027 47.253-26.88c3.050-1.913 5.048-5.256 5.048-9.067s-1.998-7.154-5.003-9.041l-0.044-0.026-47.253-26.773c-1.53-0.899-3.37-1.43-5.335-1.43-5.831 0-10.57 4.679-10.665 10.488v0.009zM464 644.8c0.096 5.817 4.834 10.497 10.665 10.497 1.964 0 3.804-0.531 5.385-1.457l-0.050 0.027 47.253-26.773c3.050-1.913 5.048-5.256 5.048-9.067s-1.998-7.154-5.003-9.041l-0.044-0.026-47.253-26.88c-1.53-0.899-3.37-1.43-5.335-1.43-5.831 0-10.57 4.679-10.665 10.488v0.009zM464 519.040c0.096 5.817 4.834 10.497 10.665 10.497 1.964 0 3.804-0.531 5.385-1.457l-0.050 0.027 47.253-26.773c3.050-1.913 5.048-5.256 5.048-9.067s-1.998-7.154-5.003-9.041l-0.044-0.026-47.253-26.88c-1.53-0.899-3.37-1.43-5.335-1.43-5.831 0-10.57 4.679-10.665 10.488v0.009zM505.387 194.667c-32.572 4.465-57.396 32.11-57.396 65.554 0 0.391 0.003 0.782 0.010 1.172l-0.001-0.059 11.52 131.733c0.788 8.217 7.646 14.593 15.998 14.613h72.962c8.387-0.025 15.265-6.458 15.996-14.658l0.004-0.062 11.52-134.613c0-0.007 0-0.015 0-0.023 0-35.346-28.654-64-64-64-2.329 0-4.63 0.124-6.895 0.367l0.281-0.024z" />
<glyph unicode="&#xe911;" glyph-name="attachments" d="M240.747 298.027v366.613c0 101.12 92.8 183.36 193.92 183.36s193.92-82.24 193.92-183.36v-333.333c-1.962-62.912-53.433-113.166-116.64-113.166s-114.677 50.253-116.636 112.986l-0.004 0.18v316.693c1.027 17.609 15.558 31.5 33.333 31.5s32.306-13.891 33.329-31.41l0.004-0.090v-316.693c-0.034-0.689-0.053-1.497-0.053-2.309 0-27.629 22.398-50.027 50.027-50.027s50.027 22.398 50.027 50.027c0 0.812-0.019 1.62-0.058 2.423l0.004-0.113v333.333c0 64-62.933 116.693-127.253 116.693s-127.253-52.373-127.253-116.693v-366.613c0-101.12 92.8-183.36 193.92-183.36s193.92 82.24 193.92 183.36v349.973c1.027 17.609 15.558 31.5 33.333 31.5s32.306-13.891 33.329-31.41l0.004-0.090v-349.973c0-138.027-122.773-250.027-260.587-250.027s-260.587 112-260.587 250.027z" />
<glyph unicode="&#xe912;" glyph-name="back" d="M630.187 736c-14.098-0.005-26.853-5.755-36.050-15.036l-236.377-236.377c-9.283-9.301-15.024-22.14-15.024-36.32s5.741-27.019 15.025-36.321l236.373-236.906c9.227-9.227 21.974-14.934 36.053-14.934 28.159 0 50.987 22.828 50.987 50.987 0 14.080-5.707 26.826-14.934 36.053v0l-200.853 200.853 200.853 200.853c9.201 9.239 14.89 21.982 14.89 36.054 0 28.165-22.79 51.008-50.935 51.093h-0.008z" />
<glyph unicode="&#xe913;" glyph-name="block" d="M512 810.667c-200.295 0-362.667-162.371-362.667-362.667s162.371-362.667 362.667-362.667c200.295 0 362.667 162.371 362.667 362.667v0c0 200.295-162.371 362.667-362.667 362.667v0zM657.067 411.733h-290.133c-20.030 0-36.267 16.237-36.267 36.267s16.237 36.267 36.267 36.267h290.133c20.030 0 36.267-16.237 36.267-36.267s-16.237-36.267-36.267-36.267v0z" />
<glyph unicode="&#xe914;" glyph-name="bold" d="M544 674.24c41.65 0 75.413-33.764 75.413-75.413s-33.764-75.413-75.413-75.413v0h-151.467v150.827zM568.533 372.587c41.65 0 75.413-33.764 75.413-75.413s-33.764-75.413-75.413-75.413v0h-176v150.827zM291.947 800c-27.722-0.061-50.179-22.518-50.24-50.234v-603.526c0.061-27.722 22.518-50.179 50.234-50.24h290.673c104.107 0 199.147 85.333 199.68 189.547 0.021 1.055 0.034 2.299 0.034 3.545 0 74.673-43.772 139.123-107.058 169.091l-1.136 0.484c48.853 33.6 83.2 88.853 83.2 140.16 0.014 0.864 0.021 1.883 0.021 2.904 0 109.514-88.779 198.293-198.293 198.293-1.095 0-2.188-0.009-3.279-0.027l0.164 0.002z" />
<glyph unicode="&#xe915;" glyph-name="bull-list" d="M356.373 738.56c-22.916 0-41.493-18.577-41.493-41.493s18.577-41.493 41.493-41.493h498.133c22.916 0 41.493 18.577 41.493 41.493s-18.577 41.493-41.493 41.493v0zM190.293 759.893c-34.404 0-62.293-27.89-62.293-62.293s27.89-62.293 62.293-62.293c34.404 0 62.293 27.89 62.293 62.293v0c0 0.032 0 0.069 0 0.107 0 34.345-27.842 62.187-62.187 62.187-0.038 0-0.075 0-0.113 0h0.006zM356.373 490.027c-22.916 0-41.493-18.577-41.493-41.493s18.577-41.493 41.493-41.493h498.133c22.916 0 41.493 18.577 41.493 41.493s-18.577 41.493-41.493 41.493v0zM190.293 511.36c-34.4-0.005-62.284-27.893-62.284-62.293 0-34.404 27.89-62.293 62.293-62.293 34.029 0 61.685 27.285 62.283 61.171l0.001 0.056c0 0.032 0 0.069 0 0.107 0 34.345-27.842 62.187-62.187 62.187-0.038 0-0.075 0-0.113 0h0.006zM356.373 241.493c-22.916 0-41.493-18.577-41.493-41.493s18.577-41.493 41.493-41.493h498.133c22.916 0 41.493 18.577 41.493 41.493s-18.577 41.493-41.493 41.493v0zM190.293 261.227c-34.404 0-62.293-27.89-62.293-62.293s27.89-62.293 62.293-62.293c34.404 0 62.293 27.89 62.293 62.293v0c-0.121 34.355-27.938 62.173-62.282 62.293h-0.012z" />
<glyph unicode="&#xe916;" glyph-name="calendar" d="M837.867 795.2h-122.24v122.133h-81.493v-122.133h-244.267v122.133h-81.493v-122.133h-122.24c-44.913-0.181-81.266-36.572-81.387-81.482v-610.892c0.121-44.921 36.474-81.312 81.369-81.493h651.75c44.913 0.181 81.266 36.572 81.387 81.482v610.892c-0.121 44.921-36.474 81.312-81.369 81.493h-0.017zM837.867 102.827h-651.733v448h651.733z" />
<glyph unicode="&#xe917;" glyph-name="car" d="M789.867 727.040c-9.009 23.807-31.617 40.428-58.107 40.428-0.122 0-0.243 0-0.365-0.001h-438.808c-26.374-0.211-48.832-16.752-57.776-40l-0.144-0.427-85.333-239.147v-319.147c1.501-22.812 20.372-40.747 43.432-40.747 0.031 0 0.062 0 0.093 0h39.888c20.79 0.389 37.494 17.334 37.494 38.18 0 0.715-0.020 1.426-0.058 2.131l0.004-0.098v37.973h483.627v-37.44c-0.055-0.767-0.086-1.663-0.086-2.566 0-20.858 16.722-37.81 37.492-38.18h39.928c0.026 0 0.057 0 0.088 0 23.060 0 41.931 17.935 43.425 40.616l0.007 0.13v319.147zM292.587 328.32c-0.127-0.001-0.277-0.002-0.427-0.002-33.049 0-59.84 26.791-59.84 59.84s26.791 59.84 59.84 59.84c33.048 0 59.839-26.79 59.84-59.838v0c0-0.032 0-0.070 0-0.108 0-32.877-26.562-59.551-59.396-59.732h-0.017zM731.413 328.32c-33.049 0-59.84 26.791-59.84 59.84s26.791 59.84 59.84 59.84c33.049 0 59.84-26.791 59.84-59.84v0c0-0.032 0-0.069 0-0.107 0-32.99-26.744-59.733-59.733-59.733-0.038 0-0.075 0-0.113 0h0.006zM232.747 525.76l59.84 181.333h438.827l59.84-181.333z" />
<glyph unicode="&#xe918;" glyph-name="chat" d="M936.533 522.667c0 195.52-208.32 354.133-419.84 354.133s-407.467-158.933-407.467-354.133c0-164.587 146.027-302.933 310.507-342.72 4.693-44.8-14.613-109.013-29.653-144.107-0.711-1.191-1.132-2.626-1.132-4.16 0-4.536 3.677-8.213 8.213-8.213 0.023 0 0.046 0 0.068 0h-0.003c86.293 5.227 174.293 66.347 194.027 151.787 175.787 31.68 345.28 103.893 345.28 347.413z" />
<glyph unicode="&#xe919;" glyph-name="chatJump" d="M477.013 686.72v-392.64l-171.52 171.52c-6.026 4.976-13.828 7.994-22.335 7.994-19.44 0-35.2-15.76-35.2-35.2 0-8.534 3.037-16.359 8.089-22.452l-0.047 0.058 231.253-231.573c6.332-6.336 15.082-10.255 24.747-10.255s18.415 3.919 24.747 10.255l231.253 231.573c6.324 6.337 10.235 15.085 10.235 24.747 0 19.349-15.686 35.035-35.035 35.035-9.688 0-18.457-3.932-24.799-10.288l-171.094-171.414v392.64c-1.056 18.589-16.388 33.263-35.147 33.263s-34.091-14.674-35.142-33.17l-0.004-0.093z" />
<glyph unicode="&#xe91a;" glyph-name="chatSend" d="M512 949.333c-276.879 0-501.333-224.455-501.333-501.333s224.455-501.333 501.333-501.333c276.879 0 501.333 224.455 501.333 501.333v0c0 276.879-224.455 501.333-501.333 501.333v0zM758.080 420.373c-6.146-6.090-14.607-9.853-23.947-9.853s-17.801 3.763-23.949 9.855l-164.584 164.69v-376.853c-1.034-17.84-15.753-31.915-33.76-31.915s-32.726 14.075-33.756 31.824l-0.004 0.091v376.853l-164.587-164.693c-6.088-6.088-14.497-9.853-23.787-9.853-18.579 0-33.639 15.061-33.639 33.639 0 9.289 3.765 17.699 9.853 23.787v0l222.293 222.4c6.095 6.071 14.502 9.825 23.787 9.825s17.692-3.754 23.788-9.826l222.292-222.399c6.123-6.071 9.914-14.486 9.914-23.787s-3.791-17.715-9.911-23.784l-0.002-0.002z" />
<glyph unicode="&#xe91b;" glyph-name="check-empty" d="M512 773.333c179.677 0 325.333-145.657 325.333-325.333s-145.657-325.333-325.333-325.333c-179.677 0-325.333 145.657-325.333 325.333v0c0.182 179.604 145.73 325.152 325.316 325.333h0.017zM512 832c-212.077 0-384-171.923-384-384s171.923-384 384-384c212.077 0 384 171.923 384 384v0c0 212.077-171.923 384-384 384v0z" />
<glyph unicode="&#xe91c;" glyph-name="check" d="M512 810.667c-200.295 0-362.667-162.371-362.667-362.667s162.371-362.667 362.667-362.667c200.295 0 362.667 162.371 362.667 362.667v0c0 200.295-162.371 362.667-362.667 362.667v0zM440.64 280.533l-141.973 142.187 50.133 50.133 92.053-91.733 234.667 234.667 49.813-50.453z" />
<glyph unicode="&#xe91d;" glyph-name="clear-formatting" d="M289.813 807.040l138.667-138.667h84.373l-25.387-58.987 96-96 67.2 155.307h197.547c38.292 0 69.333 31.042 69.333 69.333s-31.042 69.333-69.333 69.333v0zM152.64 794.667c-0.015 0-0.033 0-0.051 0-25.39 0-45.973-20.583-45.973-45.973 0-12.708 5.156-24.211 13.49-32.533l288.641-288.641-76.053-177.067c-4.555-8.575-7.23-18.75-7.23-29.549 0-35.346 28.654-64 64-64 27.938 0 51.695 17.902 60.426 42.86l0.137 0.449 55.573 130.453 228.267-228.16c8.293-8.354 19.783-13.526 32.48-13.526s24.187 5.172 32.477 13.523l0.003 0.003c8.274 8.15 13.401 19.476 13.401 32s-5.126 23.85-13.395 31.994l-0.006 0.006-613.653 614.72c-8.205 8.194-19.493 13.304-31.974 13.44h-0.026z" />
<glyph unicode="&#xe91e;" glyph-name="close_1" d="M820.587 694.933l-62.4 62.4-246.187-247.36-247.040 247.36-62.293-62.4 247.040-246.933-247.040-246.933 62.293-62.4 247.040 247.36 247.040-247.36 62.293 62.4-247.040 246.933z" />
<glyph unicode="&#xe91f;" glyph-name="close" d="M789.333 725.973v0c-7.977 8.002-19.010 12.953-31.2 12.953s-23.223-4.951-31.199-12.951l-0.001-0.001-214.933-216-215.787 216.107c-7.977 8.002-19.010 12.953-31.2 12.953s-23.223-4.951-31.199-12.951l-0.001-0.001c-7.97-7.972-12.899-18.984-12.899-31.147s4.929-23.175 12.899-31.147l215.893-215.787-215.787-215.787c-7.97-7.972-12.899-18.984-12.899-31.147s4.929-23.175 12.899-31.147v0c7.977-8.002 19.010-12.953 31.2-12.953s23.223 4.951 31.199 12.951l0.001 0.001 215.68 216.107 215.787-216.107c7.977-8.002 19.010-12.953 31.2-12.953s23.223 4.951 31.199 12.951l0.001 0.001c7.97 7.972 12.899 18.984 12.899 31.147s-4.929 23.175-12.899 31.147l-215.893 215.787 215.040 215.787c7.964 7.955 12.89 18.949 12.89 31.093s-4.926 23.139-12.89 31.093v0z" />
<glyph unicode="&#xe920;" glyph-name="closeCircle" d="M587.413 561.173l37.76-37.76-75.413-75.413 75.413-75.413-37.76-37.76-75.413 75.52-75.413-75.52-37.76 37.76 75.52 75.413-75.52 75.413 37.76 37.76 75.413-75.52 75.413 75.52zM512 714.667c-147.255-0.028-266.617-119.408-266.617-266.667 0-147.276 119.391-266.667 266.667-266.667s266.667 119.391 266.667 266.667c0 73.65-29.858 140.327-78.129 188.586v0c-48.141 48.238-114.699 78.080-188.228 78.080-0.126 0-0.252 0-0.378 0h0.019z" />
<glyph unicode="&#xe921;" glyph-name="code" d="M325.013 709.44c-12.803-0.011-24.385-5.229-32.744-13.651l-214.616-214.616c-8.461-8.423-13.696-20.080-13.696-32.96s5.236-24.537 13.695-32.958l0.002-0.002 214.613-215.040c8.381-8.381 19.958-13.564 32.747-13.564 25.577 0 46.311 20.734 46.311 46.311 0 12.788-5.184 24.366-13.564 32.747l-182.4 182.293 182.4 182.293c8.437 8.355 13.661 19.941 13.661 32.747s-5.224 24.392-13.657 32.743l-0.004 0.004c-8.386 8.386-19.952 13.592-32.735 13.653h-0.012zM698.987 709.44c-12.794-0.061-24.361-5.267-32.747-13.653v0c-8.437-8.355-13.661-19.941-13.661-32.747s5.224-24.392 13.657-32.743l182.404-182.297-182.4-182.293c-8.437-8.355-13.661-19.941-13.661-32.747s5.224-24.392 13.657-32.743l0.004-0.004c8.355-8.437 19.941-13.661 32.747-13.661s24.392 5.224 32.743 13.657l0.004 0.004 214.613 215.040c8.461 8.423 13.696 20.080 13.696 32.96s-5.236 24.537-13.695 32.958l-214.615 214.615c-8.362 8.424-19.944 13.643-32.745 13.653h-0.002z" />
<glyph unicode="&#xe922;" glyph-name="computer" d="M723.52 629.333c0 0 0 0 0 0 16.693 0 30.232-13.502 30.293-30.181v-241.819c-0.061-16.685-13.6-30.187-30.293-30.187 0 0 0 0 0 0h-423.040c0 0 0 0 0 0-16.693 0-30.232 13.502-30.293 30.181v241.819c0.061 16.685 13.6 30.187 30.293 30.187 0 0 0 0 0 0v0zM270.187 689.813c-33.332-0.121-60.313-27.14-60.373-60.474v-302.193c0.060-33.34 27.041-60.359 60.362-60.48h-90.655c-15.939-0.976-28.497-14.142-28.497-30.24s12.557-29.264 28.411-30.236l0.085-0.004h664.96c15.939 0.976 28.497 14.142 28.497 30.24s-12.557 29.264-28.411 30.236l-0.085 0.004h-90.667c33.205 0.182 60.053 27.142 60.053 60.372 0 0.038 0 0.076 0 0.113v-0.006 302.187c-0.060 33.34-27.041 60.359-60.362 60.48h-0.012z" />
<glyph unicode="&#xe923;" glyph-name="contacts" d="M843.84 874.667h-663.68c-52.298-0.181-94.645-42.528-94.827-94.809v-663.697c0.181-52.298 42.528-94.645 94.809-94.827h663.697c52.298 0.181 94.645 42.528 94.827 94.809v663.697c-0.181 52.298-42.528 94.645-94.809 94.827h-0.017zM512 732.48c0.769 0.015 1.677 0.024 2.586 0.024 77.114 0 139.627-62.513 139.627-139.627 0-0.946-0.009-1.89-0.028-2.832l0.002 0.141c0.015-0.769 0.024-1.675 0.024-2.584 0-77.114-62.513-139.627-139.627-139.627-0.908 0-1.815 0.009-2.719 0.026l0.135-0.002c-0.769-0.015-1.675-0.024-2.584-0.024-77.114 0-139.627 62.513-139.627 139.627 0 0.908 0.009 1.815 0.026 2.719l-0.002-0.135c-0.017 0.801-0.026 1.745-0.026 2.691 0 77.114 62.513 139.627 139.627 139.627 0.909 0 1.816-0.009 2.722-0.026l-0.136 0.002zM796.48 163.52h-568.96v47.467c0 94.827 189.653 146.987 284.48 146.987s284.48-52.16 284.48-146.987z" />
<glyph unicode="&#xe924;" glyph-name="drafts" d="M544 725.333l176-176h-144c-17.673 0-32 14.327-32 32v0 144zM320 773.333c-35.346 0-64-28.654-64-64v0-512c0-35.346 28.654-64 64-64v0h384c35.346 0 64 28.654 64 64v0 357.333c0 0.052 0 0.114 0 0.176 0 17.6-7.225 33.513-18.87 44.934l-0.010 0.010-154.24 154.667c-11.595 11.662-27.649 18.88-45.389 18.88-0.018 0-0.036 0-0.053 0h0.003z" />
<glyph unicode="&#xe925;" glyph-name="email" d="M879.893 693.333c-13.577 37.605-48.961 64-90.51 64-0.018 0-0.035 0-0.053 0h-554.664c-44.139-0.002-81.32-29.794-92.534-70.365l-0.159-0.675c-1.103-3.81-1.738-8.186-1.738-12.711 0-15.799 7.736-29.79 19.626-38.394l0.138-0.095 351.040-261.76 352 263.040c12.075 9.375 19.772 23.894 19.772 40.21 0 4.396-0.559 8.661-1.609 12.729l0.077-0.352zM138.667 234.667c0-53.019 42.981-96 96-96v0h554.667c53.019 0 96 42.981 96 96v0 317.44c0.011 0.268 0.018 0.582 0.018 0.898 0 12.666-10.268 22.933-22.933 22.933-5.338 0-10.25-1.824-14.147-4.882l0.050 0.038-321.813-240.427c-4.282-3.136-9.655-5.018-15.467-5.018s-11.184 1.882-15.541 5.069l0.074-0.052-320 239.040c-3.828 2.971-8.701 4.763-13.992 4.763-12.666 0-22.933-10.268-22.933-22.933 0-0.325 0.007-0.648 0.020-0.969l-0.002 0.046v-315.947z" />
<glyph unicode="&#xe926;" glyph-name="emoji" d="M661.333 618.667c35.346 0 64-28.654 64-64s-28.654-64-64-64c-35.346 0-64 28.654-64 64v0c0 35.346 28.654 64 64 64v0zM362.667 618.667c35.346 0 64-28.654 64-64s-28.654-64-64-64c-35.346 0-64 28.654-64 64v0c0 35.346 28.654 64 64 64v0zM512 874.667c-235.641 0-426.667-191.025-426.667-426.667s191.025-426.667 426.667-426.667c235.641 0 426.667 191.025 426.667 426.667v0c0 235.641-191.025 426.667-426.667 426.667v0zM512 106.667c-188.513 0-341.333 152.82-341.333 341.333s152.82 341.333 341.333 341.333c188.513 0 341.333-152.82 341.333-341.333v0c0-188.513-152.82-341.333-341.333-341.333v0zM700.16 367.36c-4.739 2.927-10.483 4.662-16.632 4.662-11.508 0-21.596-6.074-27.235-15.191l-0.079-0.137c-30.575-48.139-83.611-79.622-144-79.622s-113.425 31.483-143.59 78.931l-0.41 0.691c-5.89 7.97-15.252 13.081-25.809 13.081-17.673 0-32-14.327-32-32 0-5.405 1.34-10.497 3.706-14.962l-0.084 0.174c41.915-66.644 115.061-110.286 198.4-110.286s156.485 43.641 197.831 109.317l0.569 0.968c3.046 4.81 4.854 10.665 4.854 16.943 0 11.586-6.158 21.734-15.379 27.35l-0.141 0.080z" />
<glyph unicode="&#xe927;" glyph-name="entertainment" d="M906.667 524.693v153.493c-0.717 42.57-35.396 76.805-78.070 76.805-0.304 0-0.607-0.002-0.91-0.005h-631.421c-0.351 0.006-0.765 0.009-1.179 0.009-42.611 0-77.217-34.274-77.754-76.758l-0.001-0.051v-153.493c42.357 0 76.693-34.337 76.693-76.693s-34.337-76.693-76.693-76.693v0-153.493c0.717-42.57 35.396-76.805 78.070-76.805 0.304 0 0.607 0.002 0.91 0.005h631.421c0.257-0.003 0.56-0.005 0.864-0.005 42.674 0 77.352 34.234 78.069 76.738l0.001 0.067v153.493c-42.357 0-76.693 34.337-76.693 76.693s34.337 76.693 76.693 76.693v0zM641.067 264.213l-129.067 82.56-128.747-82.56 38.933 147.84-118.507 96 152.64 8.96 55.68 141.867 55.36-141.76 152.747-8.96-118.507-96z" />
<glyph unicode="&#xe928;" glyph-name="expand-more" d="M751.253 370.347c0.444-0.009 0.968-0.014 1.493-0.014 42.887 0 77.653 34.767 77.653 77.653s-34.767 77.653-77.653 77.653c-42.882 0-77.645-34.758-77.653-77.638v-0.001c-0.002-0.223-0.004-0.486-0.004-0.75 0-42.213 34.010-76.483 76.124-76.903h0.040zM512 370.347c0.444-0.009 0.968-0.014 1.493-0.014 42.887 0 77.653 34.767 77.653 77.653s-34.767 77.653-77.653 77.653c-42.882 0-77.645-34.758-77.653-77.638v-0.001c-0.002-0.223-0.004-0.486-0.004-0.75 0-42.213 34.010-76.483 76.124-76.903h0.040zM272.747 370.347c0.444-0.009 0.968-0.014 1.493-0.014 42.887 0 77.653 34.767 77.653 77.653s-34.767 77.653-77.653 77.653c-42.882 0-77.645-34.758-77.653-77.638v-0.001c-0.002-0.223-0.004-0.486-0.004-0.75 0-42.213 34.010-76.483 76.124-76.903h0.040z" />
<glyph unicode="&#xe929;" glyph-name="feed-attachments" d="M234.027 288v391.147c0 107.733 98.987 195.52 206.827 195.52s206.933-87.787 206.933-195.52v-355.627c0-68.748-55.732-124.48-124.48-124.48s-124.48 55.732-124.48 124.48v0 337.813c1.063 18.819 16.583 33.678 35.573 33.678s34.511-14.859 35.569-33.584l0.004-0.094v-337.813c0-29.455 23.878-53.333 53.333-53.333s53.333 23.878 53.333 53.333v0 355.627c0 68.587-67.093 124.373-135.787 124.373s-135.68-55.787-135.68-124.373v-391.147c0-107.84 98.987-195.52 206.827-195.52s206.827 87.68 206.827 195.52v373.333c1.063 18.819 16.583 33.678 35.573 33.678s34.511-14.859 35.569-33.584l0.004-0.094v-373.333c0-147.093-130.88-266.667-277.973-266.667s-277.973 119.573-277.973 266.667z" />
<glyph unicode="&#xe92a;" glyph-name="feed-calendar" d="M826.987 768h-112.32v112h-74.667v-112h-224v112h-74.667v-112h-111.68c-41.237 0-74.667-33.429-74.667-74.667v0-560c0-41.237 33.429-74.667 74.667-74.667v0h597.333c41.237 0 74.667 33.429 74.667 74.667v0 560c0 41.237-33.429 74.667-74.667 74.667v0zM826.987 133.333h-597.333v410.667h597.333z" />
<glyph unicode="&#xe92b;" glyph-name="feed-forward" d="M910.613 481.6l-319.253 275.733c-7.74 6.69-17.901 10.765-29.013 10.765-24.525 0-44.415-19.849-44.48-44.359v-127.579h-347.2c-24.52-0.061-44.373-19.952-44.373-44.48 0 0 0 0 0 0v0-207.36c0 0 0 0 0 0 0-24.528 19.854-44.419 44.368-44.48h347.206v-127.36c0-0.029 0-0.064 0-0.098 0-24.566 19.914-44.48 44.48-44.48 11.113 0 21.274 4.075 29.070 10.813l-0.057-0.048 319.253 275.733c9.481 8.166 15.447 20.186 15.447 33.6s-5.966 25.434-15.389 33.551l-0.058 0.049z" />
<glyph unicode="&#xe92c;" glyph-name="feed-reply" d="M461.653 593.6c-2.347 0-1.387 145.067-4.8 147.84-35.84 58.027-92.8 0-92.8 0l-261.653-245.547c-24.107-23.787-21.333-56.107 0-72.533l262.933-224c22.613-17.92 54.933-60.48 92.8 0 6.4 13.547 1.813 138.667 3.627 138.667 138.667 21.333 292.373-16.107 402.88-114.453 34.56-29.333 74.667-17.067 74.667 21.333-13.653 218.667-259.52 334.72-477.653 348.693z" />
<glyph unicode="&#xe92d;" glyph-name="finance" d="M581.333 138.667v-117.333h-130.773v117.973c-83.733 18.56-155.2 74.667-160 173.12h96c4.8-53.333 40.107-94.827 129.92-94.827 96 0 117.333 49.6 117.333 80.747 0 42.667-21.333 81.92-130.773 109.013-121.6 30.187-204.8 82.24-204.8 186.667 0 87.147 67.947 144.107 152.533 163.093v117.547h130.56v-118.933c79.916-18.16 138.835-88.138 139.839-172.050l0.001-0.11h-96c-2.56 56.533-31.36 94.827-108.907 94.827-73.707 0-117.333-34.347-117.333-83.52 0-42.667 32-70.507 130.773-97.173s204.16-71.040 204.16-199.040c0-92.373-67.627-143.573-152.533-160z" />
<glyph unicode="&#xe92f;" glyph-name="flag" d="M602.453 663.253l-8.747 43.627c-3.406 16.718-17.989 29.12-35.468 29.12-0.056 0-0.111 0-0.167 0h-261.324c-20.040-0.12-36.253-16.333-36.373-36.362v-544.758c-0.002-0.136-0.003-0.296-0.003-0.457 0-17.534 12.122-32.236 28.442-36.184l0.254-0.052c2.308-0.52 4.96-0.818 7.68-0.818 20.097 0 36.399 16.252 36.48 36.33v218.355h203.733l8.747-43.627c3.316-16.704 17.854-29.122 35.293-29.122 0.117 0 0.235 0.001 0.352 0.002h197.315c17.649 0.031 31.945 14.346 31.945 32 0 5.762-1.523 11.167-4.188 15.837l0.083-0.157-74.88 133.013 75.627 135.040c2.582 4.513 4.105 9.918 4.105 15.68 0 17.673-14.327 32-32 32-0.018 0-0.036 0-0.054 0h0.003z" />
<glyph unicode="&#xe930;" glyph-name="flight" d="M928 273.28l-350.293 109.227v-240.32l87.573-65.493v-66.027l-153.28 44.16-153.28-44.16v66.027l87.573 65.493v240.32l-350.293-109.227v87.36l350.293 218.347v240.32c0 36.289 29.418 65.707 65.707 65.707s65.707-29.418 65.707-65.707v0-240.213l350.293-218.453z" />
<glyph unicode="&#xe931;" glyph-name="folder" d="M775.68 153.813h-528.853c-0.445-0.017-0.968-0.026-1.493-0.026-23.564 0-42.667 19.103-42.667 42.667 0 0.009 0 0.018 0 0.028v-0.001 503.893c-0.001 0.125-0.002 0.273-0.002 0.421 0 11.852 4.995 22.537 12.994 30.066l0.021 0.020c7.453 7.049 17.537 11.382 28.634 11.382 0.884 0 1.762-0.028 2.632-0.082l-0.119 0.006h204.907c0.903 0.068 1.956 0.107 3.018 0.107 10.899 0 20.843-4.086 28.384-10.811l-0.042 0.037c8.202-7.618 13.394-18.378 13.653-30.353l0.001-0.047 0.64-42.667h278.293c25.526-1.508 45.656-22.577 45.656-48.347 0-0.178-0.001-0.356-0.003-0.533v0.027-412.693c-0.694-23.729-20.096-42.701-43.929-42.701-0.606 0-1.21 0.012-1.81 0.037l0.086-0.003z" />
<glyph unicode="&#xe932;" glyph-name="font-size" d="M161.707 557.44c-0.79 0.034-1.716 0.053-2.647 0.053-36.289 0-65.707-29.418-65.707-65.707s29.418-65.707 65.707-65.707c0.931 0 1.857 0.019 2.779 0.058l-0.132-0.004h65.707v-240.853c-0.034-0.79-0.053-1.716-0.053-2.647 0-36.289 29.418-65.707 65.707-65.707s65.707 29.418 65.707 65.707c0 0.931-0.019 1.857-0.058 2.779l0.004-0.132v240.853h65.707c0.79-0.034 1.716-0.053 2.647-0.053 36.289 0 65.707 29.418 65.707 65.707s-29.418 65.707-65.707 65.707c-0.931 0-1.857-0.019-2.779-0.058l0.132 0.004zM424.427 776.427c-36.289 0-65.707-29.418-65.707-65.707s29.418-65.707 65.707-65.707v0h153.28v-459.733c-0.034-0.79-0.053-1.716-0.053-2.647 0-36.289 29.418-65.707 65.707-65.707s65.707 29.418 65.707 65.707c0 0.931-0.019 1.857-0.058 2.779l0.004-0.132v459.733h153.28c36.289 0 65.707 29.418 65.707 65.707s-29.418 65.707-65.707 65.707v0z" />
<glyph unicode="&#xe933;" glyph-name="forward" d="M530.88 609.6v64c0.109 22.362 18.262 40.448 40.64 40.448 11.148 0 21.248-4.489 28.59-11.758l-0.003 0.003 226.027-225.707c7.31-7.299 11.832-17.388 11.832-28.533s-4.522-21.235-11.832-28.533l-226.028-226.028c-7.338-7.355-17.485-11.906-28.695-11.906-22.259 0-40.327 17.942-40.532 40.153v64.019h-283.093c-22.278 0.12-40.306 18.148-40.427 40.415v242.999c0.061 22.303 18.124 40.366 40.421 40.427h0.006z" />
<glyph unicode="&#xe934;" glyph-name="gif" d="M741.76 563.413v-52.373h-93.867v-34.987h62.613v-52.373h-62.613v-69.867h-47.040v209.6zM428.8 563.413c17.512-1.138 31.285-15.621 31.285-33.32 0-0.511-0.011-1.019-0.034-1.525l0.003 0.072v-17.493h-109.547v-104.853h62.507v52.373h47.040v-69.973c0.023-0.466 0.036-1.011 0.036-1.559 0-17.701-13.776-32.185-31.191-33.316l-0.099-0.005h-93.867c-17.553 1.023-31.401 15.508-31.401 33.227 0 0.581 0.015 1.159 0.044 1.734l-0.003-0.080v139.733c-0.023 0.464-0.036 1.007-0.036 1.553 0 17.739 13.834 32.246 31.302 33.323l0.095 0.005zM553.92 563.413v-209.707h-47.040v209.6zM276.16 768c-51.402-0.422-92.908-42.189-92.908-93.65 0-0.151 0-0.302 0.001-0.453v0.023-451.84c-0.001-0.128-0.001-0.279-0.001-0.43 0-51.461 41.506-93.228 92.868-93.65h489.107c51.402 0.422 92.908 42.189 92.908 93.65 0 0.151 0 0.302-0.001 0.453v-0.023 451.84c0.001 0.128 0.001 0.279 0.001 0.43 0 51.461-41.506 93.228-92.868 93.65h-0.040z" />
<glyph unicode="&#xe935;" glyph-name="hotel" d="M322.987 429.12c0.032 0 0.069 0 0.107 0 62.622 0 113.387 50.765 113.387 113.387s-50.765 113.387-113.387 113.387c-62.622 0-113.387-50.765-113.387-113.387v0c0-0.063 0-0.138 0-0.213 0-62.504 50.669-113.173 113.173-113.173 0.038 0 0.075 0 0.113 0h-0.006zM776.533 651.627h-299.947v-256.96h-300.907v336.533h-79.68v-566.4h79.68v114.987h672.64v-114.987h79.68v339.84c-0.459 81.301-66.472 147.031-147.838 147.031-1.276 0-2.548-0.016-3.817-0.048l0.188 0.004z" />
<glyph unicode="&#xe936;" glyph-name="important" d="M269.333 184h341.973c0.081 0 0.176 0 0.271 0 25.27 0 47.607 12.553 61.117 31.763l0.158 0.237 149.333 210.24c4.452 6.048 7.124 13.645 7.124 21.867s-2.673 15.818-7.196 21.97l0.072-0.103-149.333 210.667c-13.466 19.434-35.652 32.001-60.773 32.001-0.16 0-0.319-0.001-0.478-0.002h-342.268c-20.773-0.26-37.512-17.161-37.512-37.971 0-8.24 2.624-15.867 7.083-22.091l-0.078 0.114 146.027-204.693-146.027-204.373c-4.424-6.094-7.076-13.724-7.076-21.973 0-20.771 16.818-37.613 37.579-37.653h0.004z" />
<glyph unicode="&#xe937;" glyph-name="inbox" d="M718.187 688.64c19.028 0 34.453-15.425 34.453-34.453v-309.333h-107.627c-16.34-0.533-29.875-11.924-33.655-27.167l-0.052-0.246c-12.445-43.919-52.181-75.555-99.307-75.555s-86.862 31.636-99.13 74.829l-0.176 0.726c-3.832 15.489-17.367 26.88-33.649 27.412l-0.058 0.001h-107.627v309.333c0 19.028 15.425 34.453 34.453 34.453v0zM271.040 757.333c-0.128 0.001-0.279 0.001-0.431 0.001-37.526 0-67.947-30.421-67.947-67.947 0-0.263 0.001-0.526 0.004-0.788v0.040-481.28c0-0.063 0-0.138 0-0.213 0-37.783 30.599-68.419 68.368-68.48h481.606c37.89 0.121 68.572 30.804 68.693 68.682v481.292c0 37.938-30.755 68.693-68.693 68.693v0z" />
<glyph unicode="&#xe938;" glyph-name="info" d="M512 810.667c-200.295 0-362.667-162.371-362.667-362.667s162.371-362.667 362.667-362.667c200.295 0 362.667 162.371 362.667 362.667v0c0 200.295-162.371 362.667-362.667 362.667v0zM548.267 266.667h-72.533v217.6h72.533zM548.267 556.8h-72.533v72.533h72.533z" />
<glyph unicode="&#xe939;" glyph-name="italic" d="M411.413 724.587c0-0.032 0-0.069 0-0.107 0-41.591 33.716-75.307 75.307-75.307 0.038 0 0.075 0 0.113 0h35.834l-172.053-402.347h-64.853c-41.65 0-75.413-33.764-75.413-75.413s33.764-75.413 75.413-75.413v0h251.413c41.65 0 75.413 33.764 75.413 75.413s-33.764 75.413-75.413 75.413v0h-35.84l172.053 402.347h64.853c41.65 0 75.413 33.764 75.413 75.413s-33.764 75.413-75.413 75.413v0h-251.413c-0.032 0-0.069 0-0.107 0-41.591 0-75.307-33.716-75.307-75.307 0-0.038 0-0.075 0-0.113v0.006z" />
<glyph unicode="&#xe93a;" glyph-name="junk" d="M856.853 490.667l-302.187 302.187c-11.036 11.012-26.27 17.821-43.093 17.821s-32.057-6.809-43.094-17.822l0.001 0.001-301.333-302.187c-11.012-11.036-17.821-26.27-17.821-43.093s6.809-32.057 17.822-43.094l-0.001 0.001 302.187-301.333c11.036-11.012 26.27-17.821 43.093-17.821s32.057 6.809 43.094 17.822l-0.001-0.001 301.333 302.187c10.76 10.992 17.399 26.054 17.399 42.667s-6.64 31.675-17.41 42.677l0.011-0.011zM474.453 646.080h74.667v-225.493h-74.667zM519.787 259.627c-2.317-0.389-4.987-0.612-7.708-0.612-26.981 0-48.853 21.872-48.853 48.853s21.872 48.853 48.853 48.853c26.981 0 48.853-21.872 48.853-48.853 0-2.721-0.223-5.391-0.65-7.991l0.038 0.283c-3.425-20.862-19.671-37.109-40.25-40.495l-0.283-0.038z" />
<glyph unicode="&#xe93b;" glyph-name="label" d="M663.147 704h-373.333c-38.187 0-87.147-38.293-87.147-85.867v-340.8c0.721-47.282 39.219-85.333 86.604-85.333 0.003 0 0.007 0 0.010 0h373.333c28.953 0.24 54.548 14.409 70.44 36.125l0.173 0.248 148.693 208.96c2.123 2.966 3.395 6.668 3.395 10.667s-1.272 7.7-3.433 10.723l0.038-0.056-148.373 208.96c-15.744 22.119-41.291 36.374-70.168 36.374-0.082 0-0.163 0-0.245 0h0.013z" />
<glyph unicode="&#xe93c;" glyph-name="link" d="M692.16 832c-0.061 0-0.133 0-0.205 0-56.22 0-107.108-22.832-143.896-59.729l-109.232-109.232c11.57 1.829 24.914 2.876 38.502 2.88h0.005c0.132 0 0.288 0 0.444 0 32.757 0 64.060-6.225 92.791-17.557l-1.715 0.596 51.2 51.307c18.622 19.606 44.882 31.803 73.991 31.803 56.318 0 101.973-45.655 101.973-101.973 0-29.136-12.219-55.418-31.813-74.001l-0.045-0.043-144.107-144.107c-18.342-18.669-43.856-30.238-72.073-30.238-46.007 0-84.83 30.757-97.030 72.831l-0.177 0.714c-4.060-2.103-7.562-4.514-10.724-7.303l0.057 0.049-66.773-66.987c35.733-60.838 100.843-101.034 175.341-101.034 56.266 0 107.177 22.929 143.898 59.954l0.014 0.014 143.68 144.107c36.87 36.885 59.673 87.833 59.673 144.107 0 112.557-91.228 203.806-203.777 203.84h-0.003zM475.947 615.787c-0.061 0-0.133 0-0.205 0-56.22 0-107.108-22.832-143.896-59.729l-144.112-144.112c-40.699-37.391-66.115-90.865-66.115-150.275 0-112.578 91.262-203.84 203.84-203.84 59.41 0 112.884 25.416 150.141 65.968l0.133 0.147 109.44 109.013c-11.604-1.833-24.986-2.88-38.611-2.88-0.001 0-0.001 0-0.002 0v0c-0.136 0-0.296 0-0.457 0-32.716 0-63.978 6.225-92.667 17.556l1.71-0.595-51.2-51.307c-18.454-18.454-43.947-29.868-72.107-29.868-56.319 0-101.974 45.655-101.974 101.974 0 28.159 11.414 53.653 29.868 72.107l144.213 144.107c18.351 18.625 43.85 30.163 72.044 30.163 45.961 0 84.76-30.663 97.056-72.648l0.179-0.715c4.079 1.98 7.59 4.366 10.706 7.181l-0.039-0.035 66.773 66.987c-8.946 15.623-19.2 29.104-30.964 41.098l0.031-0.032c-36.793 36.902-87.681 59.733-143.901 59.733-0.072 0-0.144 0-0.217 0h0.011z" />
<glyph unicode="&#xe93d;" glyph-name="lock" d="M512 738.027c55.368-0.482 100.088-45.389 100.267-100.783v-65.084h-200.96v65.067c0.181 55.56 45.142 100.558 100.67 100.8h0.023zM512 409.387c0.095 0.001 0.207 0.001 0.32 0.001 35.935 0 65.067-29.131 65.067-65.067s-29.131-65.067-65.067-65.067c-35.935 0-65.067 29.131-65.067 65.067 0 0.037 0 0.074 0 0.112v-0.006c0 0.032 0 0.069 0 0.107 0 35.78 28.975 64.793 64.741 64.853h0.006zM512 800c-89.714-0.243-162.347-73.026-162.347-162.773 0 0 0 0 0-0.001v0-65.067h-32c-35.726-0.121-64.64-29.11-64.64-64.853 0-0.038 0-0.075 0-0.113v0.006-324.907c0-0.032 0-0.069 0-0.107 0-35.743 28.914-64.732 64.629-64.853h388.704c35.726 0.121 64.64 29.11 64.64 64.853 0 0.038 0 0.075 0 0.113v-0.006 324.907c-0.238 35.668-28.998 64.541-64.6 64.96h-32.787v65.067c0 0.001 0 0.003 0 0.004 0 89.485-72.209 162.104-161.537 162.769h-0.063z" />
<glyph unicode="&#xe93e;" glyph-name="menu-entertainment" d="M885.333 531.307v145.173c-0.717 40.214-33.485 72.538-73.802 72.538-0.304 0-0.607-0.002-0.911-0.006h-597.287c-0.32 0.005-0.697 0.008-1.074 0.008-40.276 0-72.996-32.351-73.592-72.485l-0.001-0.056v-145.173c40.118 0 72.64-32.522 72.64-72.64s-32.522-72.64-72.64-72.64v0-145.173c0.717-40.214 33.485-72.538 73.802-72.538 0.304 0 0.607 0.002 0.911 0.006h597.287c0.257-0.003 0.56-0.005 0.864-0.005 40.318 0 73.086 32.325 73.801 72.471l0.001 0.067v145.173c-40.118 0-72.64 32.522-72.64 72.64s32.522 72.64 72.64 72.64v0zM624.32 299.733l-112.32 71.787-112.107-71.787 33.92 128.64-103.147 83.627 132.907 7.787 48.427 123.52 48.32-123.413 133.013-7.893-103.147-84.053z" />
<glyph unicode="&#xe93f;" glyph-name="menu-finance" d="M581.333 138.667v-117.333h-130.773v117.973c-83.733 18.56-155.2 74.667-160 173.12h96c4.8-53.333 40.107-94.827 129.92-94.827 96 0 117.333 49.6 117.333 80.747 0 42.667-21.333 81.92-130.773 109.013-121.6 30.187-204.8 82.24-204.8 186.667 0 87.147 67.947 144.107 152.533 163.093v117.547h130.56v-118.933c79.916-18.16 138.835-88.138 139.839-172.050l0.001-0.11h-96c-2.56 56.533-31.36 94.827-108.907 94.827-73.707 0-117.333-34.347-117.333-83.52 0-42.667 32-70.507 130.773-97.173s204.16-71.040 204.16-199.040c0-92.373-67.627-143.573-152.533-160z" />
<glyph unicode="&#xe940;" glyph-name="menu-packages" d="M797.12 597.333h-117.333v104.533h-443.2c-36.267 0-65.92-25.28-65.92-60.373v-352h65.92c0.532-53.143 43.737-96.019 96.955-96.019 0.677 0 1.352 0.007 2.025 0.021l-0.101-0.002c0.605-0.014 1.317-0.021 2.031-0.021 53.219 0 96.425 42.877 96.955 95.971v0.050h197.76c1.804-53.253 45.407-95.738 98.933-95.738s97.13 42.485 98.929 95.573l0.004 0.165h65.92v178.24zM335.467 242.667c-25.753 0.888-46.293 21.979-46.293 47.867 0 26.451 21.443 47.893 47.893 47.893 26.441 0 47.878-21.427 47.893-47.865v-0.001c-0.416-26.543-22.031-47.901-48.634-47.901-0.302 0-0.603 0.003-0.904 0.008l0.045-0.001zM731.2 242.667c-25.8 0.83-46.4 21.944-46.4 47.87 0 26.451 21.443 47.893 47.893 47.893 26.443 0 47.88-21.429 47.893-47.869v-0.001c-0.417-26.543-22.032-47.899-48.634-47.899-0.265 0-0.529 0.002-0.792 0.006l0.040-0.001zM680.107 467.733v86.933h93.973l64.64-86.827z" />
<glyph unicode="&#xe941;" glyph-name="menu-subscriptions" d="M184.32 696.96h437.333v-73.6h-437.333zM475.733 294.187h-291.413v73.6h291.413zM184.32 458.667v73.6h437.333v-73.6zM694.72 146.987l-164.373 165.547 54.72 55.253 109.653-110.4 200 202.667 54.613-55.467z" />
<glyph unicode="&#xe942;" glyph-name="menu-travel" d="M885.333 291.2l-314.453 98.027v-215.68l78.507-58.773v-58.773l-137.387 39.147-137.493-39.147v58.773l78.613 58.773v215.68l-314.453-98.027v78.4l314.347 195.733v215.893c0 32.577 26.409 58.987 58.987 58.987s58.987-26.409 58.987-58.987v0-215.893l314.347-195.733z" />
<glyph unicode="&#xe943;" glyph-name="menu-unread" d="M512 650.667c-111.93 0-202.667-90.737-202.667-202.667s90.737-202.667 202.667-202.667c111.93 0 202.667 90.737 202.667 202.667v0c0 111.93-90.737 202.667-202.667 202.667v0z" />
<glyph unicode="&#xe944;" glyph-name="more" d="M589.653 687.253c0.010 0.476 0.016 1.037 0.016 1.6 0 42.946-34.814 77.76-77.76 77.76s-77.76-34.814-77.76-77.76c0-42.946 34.814-77.76 77.76-77.76 0.032 0 0.063 0 0.095 0h-0.005c0.223-0.002 0.486-0.004 0.75-0.004 42.213 0 76.483 34.010 76.903 76.124v0.040zM589.653 448c0.010 0.476 0.016 1.037 0.016 1.6 0 42.946-34.814 77.76-77.76 77.76s-77.76-34.814-77.76-77.76c0-42.946 34.814-77.76 77.76-77.76 0.032 0 0.063 0 0.095 0h-0.005c0.223-0.002 0.486-0.004 0.75-0.004 42.213 0 76.483 34.010 76.903 76.124v0.040zM589.653 208.747c0.010 0.476 0.016 1.037 0.016 1.6 0 42.946-34.814 77.76-77.76 77.76s-77.76-34.814-77.76-77.76c0-42.946 34.814-77.76 77.76-77.76 0.032 0 0.063 0 0.095 0h-0.005c0.223-0.002 0.486-0.004 0.75-0.004 42.213 0 76.483 34.010 76.903 76.124v0.040z" />
<glyph unicode="&#xe945;" glyph-name="next" d="M393.813 736c-28.154-0.085-50.943-22.928-50.943-51.093 0-14.072 5.689-26.815 14.892-36.055l200.851-200.851-200.853-200.853c-9.227-9.227-14.934-21.974-14.934-36.053 0-28.159 22.828-50.987 50.987-50.987 14.080 0 26.826 5.707 36.053 14.934v0l236.373 236.907c9.283 9.301 15.024 22.14 15.024 36.32s-5.741 27.019-15.025 36.321l-236.372 236.372c-9.201 9.285-21.955 15.035-36.052 15.040h-0.001z" />
<glyph unicode="&#xe946;" glyph-name="no-network" d="M769.067 469.333c7.552-5.899 17.181-9.458 27.642-9.458 24.919 0 45.12 20.201 45.12 45.12 0 13.649-6.061 25.883-15.637 34.156l-0.058 0.049c-84.655 69.601-194.134 111.799-313.468 111.799-30.733 0-60.813-2.799-89.998-8.155l3.040 0.463 82.667-82.667c1.301 0.015 2.839 0.024 4.379 0.024 97.563 0 187.076-34.47 257.023-91.895l-0.709 0.564zM696.64 410.88c-23.077 17.029-49.722 31.101-78.357 40.879l-2.070 0.614 94.080-94.080c2.435 5.262 3.856 11.419 3.856 17.909 0 14.233-6.833 26.871-17.397 34.811l-0.112 0.081zM574.080 275.2c-18.14 9.48-39.62 15.041-62.4 15.041s-44.261-5.561-63.159-15.4l0.759 0.36c-10.206-5.485-17.028-16.086-17.028-28.281 0-8.982 3.701-17.1 9.661-22.912l0.007-0.006 46.933-46.933c5.779-5.719 13.73-9.252 22.507-9.252s16.728 3.533 22.509 9.255l46.93 46.93c6.103 5.837 9.897 14.046 9.897 23.14 0 12.031-6.639 22.511-16.454 27.977l-0.163 0.083zM757.333 221.867l-496.96 496.64c-5.456 4.458-12.498 7.159-20.172 7.159-17.673 0-32-14.327-32-32 0-7.674 2.701-14.717 7.204-20.23l-0.046 0.057 74.667-74.667c-35.098-17.381-65.341-37.052-92.997-59.76l0.837 0.667c-10.115-8.357-16.512-20.902-16.512-34.941 0-12.521 5.088-23.854 13.31-32.044l0.001-0.001c8.010-8.213 19.185-13.307 31.549-13.307 10.704 0 20.516 3.817 28.149 10.165l-0.072-0.058c29.782 24.524 64.005 45.219 101.007 60.564l2.673 0.982 71.253-71.147c-38.862-10.417-72.847-26.981-102.736-48.819l0.869 0.605c-10.744-8.206-17.605-21.023-17.605-35.443 0-12.489 5.147-23.776 13.436-31.855l0.009-0.009c8.153-8.002 19.336-12.942 31.672-12.942 10.077 0 19.385 3.296 26.903 8.868l-0.122-0.086c35.486 24.904 79.449 39.993 126.906 40.532l0.134 0.001 202.667-203.307c5.779-5.719 13.73-9.252 22.507-9.252s16.728 3.533 22.509 9.255l-0.003-0.003c6.079 5.664 9.869 13.716 9.869 22.653 0 8.466-3.401 16.138-8.912 21.724l0.003-0.003z" />
<glyph unicode="&#xe947;" glyph-name="not-junk" d="M856.853 490.667l-302.187 302.187c-11.036 11.012-26.27 17.821-43.093 17.821s-32.057-6.809-43.094-17.822l0.001 0.001-301.333-302.187c-11.012-11.036-17.821-26.27-17.821-43.093s6.809-32.057 17.822-43.094l-0.001 0.001 302.187-301.333c11.036-11.012 26.27-17.821 43.093-17.821s32.057 6.809 43.094 17.822l-0.001-0.001 301.333 302.187c10.76 10.992 17.399 26.054 17.399 42.667s-6.64 31.675-17.41 42.677l0.011-0.011zM451.52 305.493l-120.853 121.173 42.667 42.667 78.080-77.867 199.253 198.613 42.667-42.667z" />
<glyph unicode="&#xe948;" glyph-name="num-list" d="M370.56 730.987c-22.327 0-40.427-18.1-40.427-40.427s18.1-40.427 40.427-40.427h485.013c22.327 0 40.427 18.1 40.427 40.427s-18.1 40.427-40.427 40.427v0zM148.16 771.413c-10.543-0.79-18.797-9.537-18.797-20.213s8.255-19.424 18.73-20.209l0.068-0.004h20.267v-101.653c0.79-10.543 9.537-18.797 20.213-18.797s19.424 8.255 20.209 18.73l0.004 0.068v121.813c0.001 0.064 0.001 0.139 0.001 0.214 0 11.075-8.978 20.053-20.053 20.053-0.075 0-0.151 0-0.226-0.001h0.011zM370.56 488.427c-22.327 0-40.427-18.1-40.427-40.427s18.1-40.427 40.427-40.427h485.013c22.327 0 40.427 18.1 40.427 40.427s-18.1 40.427-40.427 40.427v0zM148.16 528.853c-10.543-0.79-18.797-9.537-18.797-20.213s8.255-19.424 18.73-20.209l0.068-0.004h52.587l-67.947-79.253c-2.982-3.438-4.8-7.956-4.8-12.9 0-0.002 0-0.005 0-0.007v0-8.853c-0.002-0.096-0.003-0.208-0.003-0.321 0-11.016 8.93-19.947 19.947-19.947 0.076 0 0.152 0 0.227 0.001h80.841c0.44-0.034 0.952-0.053 1.469-0.053 11.193 0 20.267 9.074 20.267 20.267s-9.074 20.267-20.267 20.267c-0.517 0-1.030-0.019-1.537-0.057l0.068 0.004h-52.48l67.84 79.253c3.045 3.398 4.907 7.912 4.907 12.86 0 0.016 0 0.033 0 0.049v-0.003 8.853c0.001 0.064 0.001 0.139 0.001 0.214 0 11.075-8.978 20.053-20.053 20.053-0.075 0-0.151 0-0.226-0.001h0.011zM370.56 245.333c-22.327 0-40.427-18.1-40.427-40.427s18.1-40.427 40.427-40.427h485.013c22.327 0 40.427 18.1 40.427 40.427s-18.1 40.427-40.427 40.427v0zM148.16 286.293c-10.543-0.79-18.797-9.537-18.797-20.213s8.255-19.424 18.73-20.209l0.068-0.004h60.693v-20.16h-20.267c-10.543-0.79-18.797-9.537-18.797-20.213s8.255-19.424 18.73-20.209l0.068-0.004h20.267v-20.267h-60.693c-10.543-0.79-18.797-9.537-18.797-20.213s8.255-19.424 18.73-20.209l0.068-0.004h80.853c0.032 0 0.069 0 0.107 0 11.134 0 20.16 9.026 20.16 20.16 0 0.038 0 0.075 0 0.113v-0.006 121.28c0 0.032 0 0.070 0 0.108 0 11.075-8.978 20.053-20.053 20.053-0.075 0-0.15 0-0.225-0.001h0.011z" />
<glyph unicode="&#xe949;" glyph-name="outbox" d="M414.827 692.267l62.933 62.933v-337.173c0-18.91 15.33-34.24 34.24-34.24s34.24 15.33 34.24 34.24v0 337.173l62.933-62.933c6.22-6.233 14.82-10.089 24.32-10.089 18.974 0 34.356 15.382 34.356 34.356 0 9.474-3.835 18.052-10.037 24.267l-121.492 121.599c-6.242 6.184-14.835 10.005-24.32 10.005s-18.078-3.821-24.323-10.008l-121.49-121.597c-6.201-6.215-10.036-14.793-10.036-24.267 0-18.974 15.382-34.356 34.356-34.356 9.5 0 18.1 3.856 24.319 10.089l0.001 0.001zM752.64 586.667h-131.733v-68.693h97.28c19.028 0 34.453-15.425 34.453-34.453v0-181.333h-107.627c-16.34-0.533-29.875-11.924-33.655-27.167l-0.052-0.246c-12.445-43.919-52.181-75.555-99.307-75.555s-86.862 31.636-99.13 74.829l-0.176 0.726c-3.832 15.489-17.367 26.88-33.649 27.412l-0.058 0.001h-107.627v181.333c0 19.028 15.425 34.453 34.453 34.453h97.28v68.693h-132.053c-0.128 0.001-0.279 0.001-0.431 0.001-37.526 0-67.947-30.421-67.947-67.947 0-0.263 0.001-0.526 0.004-0.788v0.040-353.28c0-0.063 0-0.138 0-0.213 0-37.783 30.599-68.419 68.368-68.48h481.606c37.89 0.121 68.572 30.804 68.693 68.682v353.292c0 37.938-30.755 68.693-68.693 68.693v0z" />
<glyph unicode="&#xe94a;" glyph-name="packages" d="M843.627 623.787h-137.707v122.88h-521.707c-42.667 0-77.547-29.76-77.547-71.040v-413.653h77.547c0.769-62.387 51.522-112.664 114.019-112.664 0.828 0 1.654 0.009 2.478 0.026l-0.123-0.002c0.701-0.015 1.527-0.024 2.355-0.024 62.496 0 113.249 50.278 114.018 112.592l0.001 0.072h232.747c2.744-62.149 53.796-111.496 116.373-111.496s113.629 49.347 116.365 111.25l0.009 0.247h77.547v209.173zM300.587 206.507c-30.267 1.065-54.4 25.858-54.4 56.287 0 31.105 25.215 56.32 56.32 56.32s56.32-25.215 56.32-56.32c0-0.026 0-0.052 0-0.078v0.004c-0.474-31.153-25.839-56.226-57.060-56.226-0.415 0-0.828 0.004-1.241 0.013l0.062-0.001zM766.080 206.507c-30.315 1.007-54.507 25.824-54.507 56.291 0 31.105 25.215 56.32 56.32 56.32s56.32-25.215 56.32-56.32c0-0.027 0-0.054 0-0.082v0.004c-0.535-31.164-25.924-56.222-57.165-56.222-0.34 0-0.68 0.003-1.019 0.009l0.051-0.001zM705.92 471.147v102.187h110.72l76.053-102.187z" />
<glyph unicode="&#xe94b;" glyph-name="pencil" d="M753.6 833.173c-11.747-0.021-22.377-4.786-30.080-12.48v0l-78.080-78.080 160-160 78.080 78.080c7.668 7.712 12.407 18.343 12.407 30.080s-4.74 22.368-12.409 30.082l-99.838 99.838c-7.703 7.694-18.333 12.459-30.076 12.48h-0.004zM599.787 696.96l-465.387-465.387c-3.951-3.875-6.4-9.269-6.4-15.235 0-0.044 0-0.088 0-0.131v0.007-129.707c0-11.782 9.551-21.333 21.333-21.333v0h129.707c0.073-0.001 0.159-0.001 0.244-0.001 5.795 0 11.017 2.458 14.678 6.389l0.011 0.012 465.813 465.493-160 160z" />
<glyph unicode="&#xe94c;" glyph-name="popout" d="M718.187 207.36h-412.373c-19.028 0-34.453 15.425-34.453 34.453v0 412.373c0 19.028 15.425 34.453 34.453 34.453v0h171.84c18.969 0 34.347 15.378 34.347 34.347s-15.378 34.347-34.347 34.347h-206.293c-37.938 0-68.693-30.755-68.693-68.693v0-481.28c0.121-37.89 30.804-68.572 68.682-68.693h481.292c37.89 0.121 68.572 30.804 68.693 68.682v206.305c0 18.969-15.378 34.347-34.347 34.347s-34.347-15.378-34.347-34.347v0-171.84c0-19.028-15.425-34.453-34.453-34.453v0zM580.693 722.987c0.061-18.982 15.463-34.347 34.453-34.347 0 0 0 0 0 0h88.853l-313.707-313.813c-5.636-6.1-9.092-14.286-9.092-23.279 0-18.969 15.378-34.347 34.347-34.347 8.993 0 17.179 3.456 23.302 9.113l-0.023-0.021 313.813 313.707v-88.96c0-18.969 15.378-34.347 34.347-34.347s34.347 15.378 34.347 34.347v171.947c-0.060 18.945-15.402 34.286-34.341 34.347h-171.846c0 0 0 0 0 0-18.991 0-34.393-15.365-34.453-34.341v-0.006z" />
<glyph unicode="&#xe94d;" glyph-name="price-drop" d="M672 192l97.707 97.707-208.213 208.213-170.667-170.667-286.080 286.507c-7.668 7.712-12.407 18.343-12.407 30.080s4.74 22.368 12.409 30.082l-0.002-0.002c7.712 7.668 18.343 12.407 30.080 12.407s22.368-4.74 30.082-12.409l225.918-225.918 170.667 170.667 268.8-268.373 97.707 97.707v-256z" />
<glyph unicode="&#xe94e;" glyph-name="quote" d="M397.12 476.693h-100.48c-23.564 0-42.667 19.103-42.667 42.667v0 14.827c0 0 0 0.001 0 0.001 0 63.296 51.191 114.637 114.43 114.879h28.716c15.751 0.236 28.457 12.942 28.693 28.671v57.409c-0.177 15.797-12.906 28.562-28.671 28.8h-28.716c-0.222 0.001-0.484 0.001-0.747 0.001-31.929 0-62.289-6.712-89.749-18.802l1.429 0.561c-55.611-23.522-98.992-66.869-121.998-120.967l-0.562-1.486c-11.463-26.101-18.134-56.526-18.134-88.509 0-0.196 0-0.392 0.001-0.588v0.030-315.947c-0.002-0.223-0.003-0.487-0.003-0.751 0-47.128 38.205-85.333 85.333-85.333 0.301 0 0.602 0.002 0.903 0.005h172.221c0.255-0.003 0.555-0.004 0.857-0.004 47.128 0 85.333 38.205 85.333 85.333 0 0.264-0.001 0.528-0.004 0.791v-0.040 172.373c0.002 0.223 0.003 0.487 0.003 0.751 0 47.128-38.205 85.333-85.333 85.333-0.301 0-0.602-0.002-0.903-0.005h0.046zM860.267 451.627c-15.107 15.481-36.178 25.083-59.492 25.083-0.573 0-1.144-0.006-1.714-0.017l0.085 0.001h-100.48c-23.564 0-42.667 19.103-42.667 42.667v0 14.827c0.12 63.248 51.239 114.517 114.419 114.88h28.728c15.797 0.177 28.562 12.906 28.8 28.671v57.41c-0.179 15.833-12.967 28.621-28.783 28.8h-28.71c-0.222 0.001-0.484 0.001-0.747 0.001-31.929 0-62.289-6.712-89.749-18.802l1.429 0.561c-55.606-23.485-98.969-66.847-121.894-120.968l-0.559-1.485c-11.529-26.051-18.241-56.435-18.241-88.386 0-0.239 0-0.479 0.001-0.718v0.037-315.947c-0.002-0.223-0.003-0.487-0.003-0.751 0-47.128 38.205-85.333 85.333-85.333 0.301 0 0.602 0.002 0.903 0.005h172.221c0.255-0.003 0.555-0.004 0.857-0.004 47.128 0 85.333 38.205 85.333 85.333 0 0.264-0.001 0.528-0.004 0.791v-0.040 172.373c0.009 0.453 0.014 0.988 0.014 1.524 0 23.313-9.601 44.383-25.064 59.473l-0.017 0.016z" />
<glyph unicode="&#xe94f;" glyph-name="read" d="M843.627 564.16c0.001 0.133 0.002 0.29 0.002 0.448 0 23.46-12.334 44.038-30.872 55.605l-0.276 0.161-287.467 168.427c-3.353 1.88-7.359 2.987-11.623 2.987-0.039 0-0.078 0-0.117 0h0.006c-4.43-0.196-8.521-1.478-12.066-3.585l0.119 0.065-287.253-167.893c-19-11.766-31.467-32.497-31.467-56.14 0-0.026 0-0.052 0-0.077v0.004-330.667c0.121-36.476 29.658-66.012 66.122-66.133h529.079c36.476 0.121 66.012 29.658 66.133 66.122v0.012zM512.96 398.827l-273.173 170.667 273.173 160 273.173-160z" />
<glyph unicode="&#xe950;" glyph-name="readReceipts" d="M795.413 604.373c-1.707-2.88-72.427-76.48-106.667-109.867-9.425-7.881-15.377-19.645-15.377-32.798 0-1.56 0.084-3.1 0.247-4.617l-0.016 0.188c0.11-2.214 0.172-4.808 0.172-7.416 0-88.366-71.634-160-160-160-6.979 0-13.854 0.447-20.597 1.313l0.798-0.084c-0.764 0.143-1.644 0.225-2.543 0.225-4.278 0-8.124-1.852-10.779-4.798l-0.011-0.013c-25.813-26.24-81.173-81.707-83.093-83.84 0.984-0.7 2.105-1.341 3.288-1.87l0.125-0.050c29.472-10.517 63.517-17.273 98.925-18.75l0.702-0.023c1.933-0.035 4.214-0.055 6.499-0.055 72.329 0 140.024 19.837 197.943 54.368l-1.774-0.98c87.787 48.96 160 116.267 223.36 193.173 5.973 7.253 11.627 14.933 17.493 22.4-44.127 57.622-92.986 108.003-147.082 152.217l-1.611 1.277zM919.893 864c-7.717 7.699-18.369 12.46-30.133 12.46s-22.416-4.761-30.134-12.461l0.001 0.001-183.147-183.787-2.453 1.067c-44.038 22.68-95.758 36.986-150.563 39.438l-0.797 0.028c-72.747 2.133-139.413-19.413-202.133-54.4-83.307-46.72-152.533-110.507-213.867-183.147-8.533-9.92-16.853-20.053-25.173-30.080v-3.413l23.040-27.52c47.476-57.34 100.744-107.289 159.633-149.955l2.501-1.725c0.449-0.233 0.979-0.45 1.529-0.621l0.071-0.019-162.88-163.947c-8.136-7.783-13.193-18.726-13.193-30.85 0-23.564 19.103-42.667 42.667-42.667 12.204 0 23.211 5.124 30.988 13.337l0.018 0.020 754.24 758.293c7.541 7.69 12.195 18.234 12.195 29.865 0 11.738-4.74 22.369-12.411 30.083l0.002-0.002zM394.667 562.24c29.28 31.286 70.826 50.782 116.925 50.782 28.629 0 55.501-7.519 78.75-20.69l-0.795 0.414-218.027-219.413c-13.055 22.662-20.756 49.837-20.756 78.81 0 42.691 16.719 81.476 43.968 110.166l-0.065-0.069z" />
<glyph unicode="&#xe951;" glyph-name="reply-all" d="M258.133 698.987c-11.752-0.023-22.366-4.878-29.964-12.684l-181.342-181.342c-7.246-7.288-11.726-17.334-11.726-28.427 0-11.145 4.522-21.235 11.832-28.533l181.334-181.334c7.671-7.876 18.344-12.795 30.166-12.907h0.021c0.171-0.002 0.373-0.004 0.575-0.004 23.564 0 42.667 19.103 42.667 42.667 0 11.952-4.915 22.757-12.834 30.503l-149.341 149.341 149.333 149.333c7.995 7.764 12.957 18.614 12.957 30.623 0 23.564-19.103 42.667-42.667 42.667-0.318 0-0.634-0.003-0.95-0.010l0.047 0.001zM503.467 702.72c-11.081-0.006-21.094-4.579-28.258-11.938l-0.009-0.009-186.027-185.6c-7.31-7.299-11.832-17.388-11.832-28.533s4.522-21.235 11.832-28.533l185.708-185.601c7.173-7.368 17.185-11.94 28.265-11.947h0.001c0.095-0.001 0.208-0.001 0.32-0.001 22.386 0 40.533 18.147 40.533 40.533 0 0.038 0 0.076 0 0.114v-0.006 67.947c202.667 0 343.787-24.32 444.907-165.867-40.427 202.24-161.813 364.053-444.907 404.053v64c0 0.032 0 0.070 0 0.108 0 22.386-18.147 40.533-40.533 40.533-0.113 0-0.225 0-0.337-0.001h0.017z" />
<glyph unicode="&#xe952;" glyph-name="reply" d="M422.827 597.333v64c-0.024 22.368-18.162 40.491-40.533 40.491-11.156 0-21.259-4.507-28.588-11.799l-185.598-185.598c-7.31-7.299-11.832-17.388-11.832-28.533s4.522-21.235 11.832-28.533l185.601-185.601c7.326-7.38 17.477-11.949 28.694-11.949 22.253 0 40.306 17.98 40.426 40.204v69.131c202.667 0 343.787-24.32 444.907-165.867-40.427 202.24-161.707 364.053-444.907 404.053z" />
<glyph unicode="&#xe953;" glyph-name="search" d="M658.56 360h-30.827l-10.667 10.667c38.058 44.164 61.235 102.091 61.235 165.431 0 140.325-113.755 254.080-254.080 254.080s-254.080-113.755-254.080-254.080c0-140.325 113.755-254.080 254.080-254.080 63.34 0 121.267 23.177 165.762 61.514l-0.331-0.278 10.667-10.667v-30.827l194.88-195.093 58.133 58.133zM423.893 360c-96.842 0.243-175.253 78.804-175.253 175.679 0 97.025 78.655 175.68 175.68 175.68s175.68-78.654 175.68-175.68v0c0-0.095 0-0.208 0-0.32 0-96.849-78.511-175.36-175.36-175.36-0.113 0-0.225 0-0.338 0h0.018z" />
<glyph unicode="&#xe954;" glyph-name="sent" d="M843.733 789.333l-681.28-357.333c-13.12-6.613-48.747-26.667-48.747-26.667s35.2-15.36 51.307-21.333l86.933-34.347c10.525-3.627 22.653-5.722 35.271-5.722 23.798 0 45.855 7.45 63.967 20.146l-0.358-0.238 377.707 297.493c24.853 19.52 27.52 16.64 5.867-6.507l-298.667-320c-21.333-23.040-15.253-51.2 14.187-62.72l10.667-3.947c29.44-11.413 77.547-30.613 106.667-42.667l96-39.253c29.333-11.947 53.333-21.333 53.333-21.973s0-0.747 0-0.747 7.040 24.853 15.36 55.36l147.627 541.547c8.32 30.507-7.787 43.52-35.84 28.907zM489.813 208l-128 56c-29.227 12.053-43.307-2.027-31.147-31.253l70.613-164.907 92.373 87.893c29.013 30.293 25.387 40.32-3.84 52.267z" />
<glyph unicode="&#xe955;" glyph-name="smartAssistant" d="M705.387 492.907c-1.659 3.853-5.273 6.576-9.559 6.931l-0.041 0.003-138.667 9.707 39.573 287.253c0.061 0.45 0.096 0.971 0.096 1.5 0 6.48-5.253 11.733-11.733 11.733-4.013 0-7.555-2.014-9.67-5.087l-0.026-0.040-255.36-381.44c-1.48-2.128-2.364-4.768-2.364-7.613 0-1.711 0.32-3.347 0.902-4.852l-0.031 0.092c1.534-3.828 4.975-6.594 9.115-7.14l0.058-0.006 141.653-17.067-40.96-288c-0.123-0.642-0.194-1.379-0.194-2.134 0-4.67 2.704-8.708 6.631-10.635l0.070-0.031h0.853c1.163-0.411 2.504-0.649 3.901-0.649 4.332 0 8.131 2.286 10.256 5.717l0.030 0.052 254.080 388.8c1.504 2.163 2.403 4.845 2.403 7.736 0 1.864-0.374 3.641-1.050 5.26l0.033-0.090z" />
<glyph unicode="&#xe956;" glyph-name="snooze" d="M511.36 730.027c-176.731 0-320-143.269-320-320s143.269-320 320-320c176.731 0 320 143.269 320 320v0c0 176.731-143.269 320-320 320v0zM657.813 294.4c-4.535-7.348-12.542-12.172-21.676-12.172-4.838 0-9.36 1.353-13.209 3.702l0.112-0.063-129.813 77.867c-10.536 6.187-17.498 17.462-17.498 30.364 0 0.2 0.002 0.4 0.005 0.6v-0.030 167.467c0 0.032 0 0.069 0 0.107 0 14.080 11.414 25.493 25.493 25.493 0.038 0 0.075 0 0.113 0h2.127c0.063 0.001 0.138 0.001 0.214 0.001 14.080 0 25.493-11.414 25.493-25.493 0-0.038 0-0.076 0-0.113v0.006-161.067l119.787-71.040c7.633-4.551 12.667-12.765 12.667-22.154 0-4.986-1.42-9.641-3.876-13.581l0.063 0.109zM848.64 704l-112.64 93.547c-6.317 5.256-14.515 8.446-23.459 8.446-11.337 0-21.477-5.127-28.228-13.189l-0.047-0.058c-5.18-6.331-8.318-14.508-8.318-23.417 0-11.324 5.071-21.464 13.066-28.273l0.052-0.043 112.533-93.867c6.214-4.923 14.168-7.897 22.815-7.897 20.383 0 36.907 16.524 36.907 36.907 0 11.092-4.893 21.041-12.639 27.807l-0.043 0.037zM222.293 647.147l112.64 93.867c8.134 6.787 13.271 16.927 13.271 28.267 0 20.29-16.448 36.738-36.738 36.738-8.95 0-17.152-3.2-23.525-8.519l0.059 0.048-112.64-93.547c-8.2-6.78-13.385-16.954-13.385-28.34 0-9.065 3.287-17.363 8.735-23.766l-0.043 0.052c6.702-8.213 16.824-13.415 28.161-13.415 8.973 0 17.184 3.259 23.516 8.657l-0.051-0.042z" />
<glyph unicode="&#xe957;" glyph-name="snoozed" d="M511.36 730.027c-176.731 0-320-143.269-320-320s143.269-320 320-320c176.731 0 320 143.269 320 320v0c0 176.731-143.269 320-320 320v0zM657.813 294.4c-4.535-7.348-12.542-12.172-21.676-12.172-4.838 0-9.36 1.353-13.209 3.702l0.112-0.063-129.813 77.867c-10.536 6.187-17.498 17.462-17.498 30.364 0 0.2 0.002 0.4 0.005 0.6v-0.030 167.467c0 0.032 0 0.069 0 0.107 0 14.080 11.414 25.493 25.493 25.493 0.038 0 0.075 0 0.113 0h2.127c0.063 0.001 0.138 0.001 0.214 0.001 14.080 0 25.493-11.414 25.493-25.493 0-0.038 0-0.076 0-0.113v0.006-161.067l119.787-71.040c7.633-4.551 12.667-12.765 12.667-22.154 0-4.986-1.42-9.641-3.876-13.581l0.063 0.109zM848.64 704l-112.64 93.547c-6.317 5.256-14.515 8.446-23.459 8.446-11.337 0-21.477-5.127-28.228-13.189l-0.047-0.058c-5.18-6.331-8.318-14.508-8.318-23.417 0-11.324 5.071-21.464 13.066-28.273l0.052-0.043 112.533-93.867c6.214-4.923 14.168-7.897 22.815-7.897 20.383 0 36.907 16.524 36.907 36.907 0 11.092-4.893 21.041-12.639 27.807l-0.043 0.037zM222.293 647.147l112.64 93.867c8.134 6.787 13.271 16.927 13.271 28.267 0 20.29-16.448 36.738-36.738 36.738-8.95 0-17.152-3.2-23.525-8.519l0.059 0.048-112.64-93.547c-8.2-6.78-13.385-16.954-13.385-28.34 0-9.065 3.287-17.363 8.735-23.766l-0.043 0.052c6.702-8.213 16.824-13.415 28.161-13.415 8.973 0 17.184 3.259 23.516 8.657l-0.051-0.042z" />
<glyph unicode="&#xe958;" glyph-name="spam" d="M856.853 490.667l-302.187 302.187c-11.036 11.012-26.27 17.821-43.093 17.821s-32.057-6.809-43.094-17.822l0.001 0.001-301.333-302.187c-11.012-11.036-17.821-26.27-17.821-43.093s6.809-32.057 17.822-43.094l-0.001 0.001 302.187-301.333c11.036-11.012 26.27-17.821 43.093-17.821s32.057 6.809 43.094 17.822l-0.001-0.001 301.333 302.187c10.76 10.992 17.399 26.054 17.399 42.667s-6.64 31.675-17.41 42.677l0.011-0.011zM474.453 646.080h74.667v-225.493h-74.667zM519.787 259.627c-2.317-0.389-4.987-0.612-7.708-0.612-26.981 0-48.853 21.872-48.853 48.853s21.872 48.853 48.853 48.853c26.981 0 48.853-21.872 48.853-48.853 0-2.721-0.223-5.391-0.65-7.991l0.038 0.283c-3.425-20.862-19.671-37.109-40.25-40.495l-0.283-0.038z" />
<glyph unicode="&#xe959;" glyph-name="sticker" d="M558.4 783.36c-3.733-107.947 18.667-187.84 68.373-237.653s129.707-72.64 237.227-68.373zM839.787 416c-3.067-0.077-6.679-0.12-10.301-0.12-55.38 0-108.374 10.217-157.201 28.868l3.022-1.014 73.493-118.507h-439.467l100.053 155.733 79.36-91.733 75.627 135.787c-52.373 66.24-73.707 162.133-65.067 285.653-187.139-16.181-332.913-172.083-332.913-362.033 0-200.649 162.658-363.307 363.307-363.307 189.95 0 345.853 145.775 361.938 331.554l0.095 1.359c-17.813-1.28-35.307-2.24-51.947-2.24z" />
<glyph unicode="&#xe95a;" glyph-name="strikethrough" d="M253.867 800c-38.881 0-70.4-31.519-70.4-70.4s31.519-70.4 70.4-70.4v0h164.267v-140.8h187.733v140.8h164.267c38.881 0 70.4 31.519 70.4 70.4s-31.519 70.4-70.4 70.4v0zM136.533 424.533c-25.921 0-46.933-21.013-46.933-46.933s21.013-46.933 46.933-46.933h750.933c25.921 0 46.933 21.013 46.933 46.933s-21.013 46.933-46.933 46.933v0zM418.133 236.8v-46.933c0-51.841 42.026-93.867 93.867-93.867s93.867 42.026 93.867 93.867v0 46.933z" />
<glyph unicode="&#xe95b;" glyph-name="train" d="M216.213 280.213c-0.021-0.857-0.032-1.867-0.032-2.88 0-70.692 57.308-128 128-128 0.011 0 0.023 0 0.034 0h-0.002l-58.347-55.467v-20.053h452.267v20.053l-58.347 55.467c0.007 0 0.015 0 0.024 0 70.692 0 128 57.308 128 128 0 0.863-0.009 1.723-0.026 2.582l0.002-0.129v391.573c0 130.453-131.093 149.333-295.787 149.333s-295.787-18.667-295.787-149.333zM512 224c-41.237 0-74.667 33.429-74.667 74.667s33.429 74.667 74.667 74.667c41.237 0 74.667-33.429 74.667-74.667v0c0-41.237-33.429-74.667-74.667-74.667v0zM738.133 482.667h-452.267v191.36h452.267z" />
<glyph unicode="&#xe95c;" glyph-name="trash" d="M440.213 757.333c-9.394-0.048-17.897-3.825-24.112-9.925l-24.422-24.422h-85.333c-0.573 0.034-1.242 0.053-1.916 0.053-19.028 0-34.453-15.425-34.453-34.453s15.425-34.453 34.453-34.453c0.674 0 1.344 0.019 2.008 0.058l-0.092-0.004h411.84c0.573-0.034 1.242-0.053 1.916-0.053 19.028 0 34.453 15.425 34.453 34.453s-15.425 34.453-34.453 34.453c-0.674 0-1.344-0.019-2.008-0.058l0.092 0.004h-85.333l-24.853 24.427c-6.234 6.119-14.78 9.902-24.21 9.92h-0.003zM374.507 619.84c-37.89-0.121-68.572-30.804-68.693-68.682v-343.799c0.121-37.89 30.804-68.572 68.682-68.693h274.999c37.89 0.121 68.572 30.804 68.693 68.682v343.799c-0.121 37.89-30.804 68.572-68.682 68.693h-0.012z" />
<glyph unicode="&#xe95d;" glyph-name="underline" d="M309.333 832c-29.455 0-53.333-23.878-53.333-53.333v0-288c0-141.385 114.615-256 256-256v0c0.159 0 0.348-0.001 0.536-0.001 11.695 0 23.209 0.775 34.493 2.278l-1.322-0.144c129.28 16.64 222.293 132.693 222.293 262.827v279.040c0 29.455-23.878 53.333-53.333 53.333s-53.333-23.878-53.333-53.333v0-283.733c0.011-0.668 0.017-1.457 0.017-2.247 0-71.903-50.031-132.12-117.179-147.739l-1.024-0.201c-9.612-2.102-20.654-3.307-31.977-3.307-0.008 0-0.016 0-0.024 0h0.001c-82.070 0.484-148.421 67.097-148.48 149.221v288.006c0 29.455-23.878 53.333-53.333 53.333v0zM256 149.333c-23.564 0-42.667-19.103-42.667-42.667s19.103-42.667 42.667-42.667v0h512c23.564 0 42.667 19.103 42.667 42.667s-19.103 42.667-42.667 42.667v0z" />
<glyph unicode="&#xe95e;" glyph-name="undo" d="M359.040 421.867c43.928 37.272 101.27 59.937 163.906 59.937 100.083 0 186.65-57.866 228.070-141.966l0.664-1.491c6.342-13.492 19.82-22.666 35.44-22.666 4.615 0 9.043 0.801 13.152 2.271l-0.273-0.085c16.159 5.423 27.595 20.429 27.595 38.105 0 6.106-1.364 11.893-3.805 17.073l0.104-0.245c-55.391 112.639-169.319 188.789-301.033 188.789-84.585 0-161.836-31.405-220.727-83.191l0.373 0.322-110.507 109.973v-281.387h281.387z" />
<glyph unicode="&#xe95f;" glyph-name="unread" d="M521.387 386.133c-3.066-1.613-6.7-2.56-10.556-2.56-0.039 0-0.078 0-0.117 0h0.006c-1.821 0.006-3.585 0.239-5.268 0.672l0.148-0.032c-2.142 0.461-4.031 1.123-5.803 1.986l0.15-0.066-309.333 153.387v-293.333c0-35.346 28.654-64 64-64v0h512c35.346 0 64 28.654 64 64v0 293.44zM195.627 600.96l315.2-156.373 314.987 156.373c1.389 0.66 3.024 1.245 4.722 1.668l0.184 0.039v27.52c0 35.346-28.654 64-64 64v0h-512c-35.346 0-64-28.654-64-64v0-27.52c1.882-0.46 3.517-1.045 5.070-1.776l-0.163 0.069z" />
<glyph unicode="&#xe960;" glyph-name="alert-2" d="M440.427 810.667h143.147v-429.547h-143.147v429.547zM512 73.28c-0.032 0-0.069 0-0.107 0-51.429 0-93.12 41.691-93.12 93.12s41.691 93.12 93.12 93.12c51.429 0 93.12-41.691 93.12-93.12v0c0-0.032 0-0.069 0-0.107 0-51.37-41.643-93.013-93.013-93.013v0z" />
<glyph unicode="&#xe961;" glyph-name="attachment-audio" d="M465.813 440.107q0 160 0 320c-0.004 0.222-0.006 0.484-0.006 0.747 0 25.453 20.633 46.086 46.086 46.086 25.19 0 45.66-20.21 46.079-45.3l0.001-0.039c0-45.013 0-89.92 0-134.827v-506.027c0.065-0.919 0.101-1.992 0.101-3.074 0-21.765-14.917-40.046-35.086-45.177l-0.322-0.070c-3.337-0.864-7.167-1.36-11.113-1.36-25.449 0-46.080 20.631-46.080 46.080 0 0.478 0.007 0.955 0.022 1.43l-0.002-0.069c0 49.493 0 99.093 0 148.587zM696.533 440.107v-205.44c0.001-0.111 0.002-0.242 0.002-0.373 0-25.45-20.631-46.082-46.082-46.082-25.319 0-45.869 20.419-46.080 45.688v0.020c0 58.667 0 117.333 0 175.893q0 118.187 0 236.48c-0.019 0.493-0.030 1.073-0.030 1.655 0 25.331 20.535 45.867 45.867 45.867 8.805 0 17.030-2.481 24.015-6.782l-0.198 0.114c13.65-7.983 22.674-22.57 22.674-39.264 0-0.822-0.022-1.638-0.065-2.449l0.005 0.113zM189.013 440.853c0 60.8 0 121.6 0 182.4-0.019 0.493-0.030 1.073-0.030 1.655 0 25.331 20.535 45.867 45.867 45.867 8.805 0 17.030-2.481 24.015-6.782l-0.198 0.114c13.592-7.971 22.573-22.509 22.573-39.144 0-0.864-0.024-1.722-0.072-2.574l0.005 0.118q0-71.68 0-143.467 0-110.507 0-221.333c0.001-0.111 0.002-0.242 0.002-0.373 0-25.45-20.631-46.082-46.082-46.082-25.319 0-45.869 20.419-46.080 45.688v0.020c-0.107 61.333 0 122.56 0 183.893zM419.627 439.68c0-30.507 0-61.013 0-91.52 0.001-0.133 0.002-0.29 0.002-0.447 0-25.331-20.535-45.867-45.867-45.867-8.925 0-17.255 2.549-24.301 6.96l0.192-0.112c-13.282 7.567-22.093 21.632-22.093 37.755 0 0.377 0.005 0.752 0.014 1.127l-0.001-0.055q0 92.693 0 185.28c1.394 24.324 21.459 43.522 46.009 43.522 24.812 0 45.044-19.611 46.041-44.178l0.003-0.090c0.213-30.72 0-61.547 0-92.373zM834.987 439.68c0-30.507 0-61.013 0-91.52 0.001-0.133 0.002-0.29 0.002-0.447 0-25.331-20.535-45.867-45.867-45.867-8.925 0-17.255 2.549-24.301 6.96l0.192-0.112c-13.287 7.646-22.089 21.765-22.089 37.94 0 0.312 0.003 0.623 0.010 0.933l-0.001-0.046q0 92.693 0 185.28c-0.021 0.521-0.033 1.133-0.033 1.748 0 25.449 20.631 46.080 46.080 46.080s46.080-20.631 46.080-46.080c0-0.915-0.027-1.824-0.079-2.726l0.006 0.125c0.213-30.613 0-61.44 0-92.267z" />
<glyph unicode="&#xe962;" glyph-name="attachment-book" d="M718.933 803.413h-435.2c-40.010-0.121-72.412-32.523-72.533-72.522v-580.279c0.121-40.010 32.523-72.412 72.522-72.533h435.212c40.010 0.121 72.412 32.523 72.533 72.522v580.279c-0.121 40.010-32.523 72.412-72.522 72.533h-0.012zM283.733 730.88h181.333v-290.133l-90.667 54.4-90.667-54.4z" />
<glyph unicode="&#xe963;" glyph-name="attachment-font" d="M437.333 393.6h149.333l-74.667 200.213zM802.133 810.667h-580.267c-40.010-0.121-72.412-32.523-72.533-72.522v-580.279c0.121-40.010 32.523-72.412 72.522-72.533h580.279c40.010 0.121 72.412 32.523 72.533 72.522v580.279c-0.121 40.010-32.523 72.412-72.522 72.533h-0.012zM655.253 212.267l-41.387 108.8h-204.48l-40.64-108.8h-75.84l185.387 471.467h67.413l185.387-471.467z" />
<glyph unicode="&#xe964;" glyph-name="attachment-other" d="M584.533 804.053h-290.133c-39.908-0.121-72.213-32.501-72.213-72.426 0-0.038 0-0.075 0-0.113v0.006-580.267c0-0.032 0-0.069 0-0.107 0-39.925 32.305-72.305 72.202-72.426h435.212c40.010 0.121 72.412 32.523 72.533 72.522v435.425zM341.333 301.013c-31.164 0-56.427 25.263-56.427 56.427s25.263 56.427 56.427 56.427c31.164 0 56.427-25.263 56.427-56.427v0c0-31.164-25.263-56.427-56.427-56.427v0zM512 301.013c-31.164 0-56.427 25.263-56.427 56.427s25.263 56.427 56.427 56.427c31.164 0 56.427-25.263 56.427-56.427v0c0-31.164-25.263-56.427-56.427-56.427v0zM682.667 301.013c-31.164 0-56.427 25.263-56.427 56.427s25.263 56.427 56.427 56.427c31.164 0 56.427-25.263 56.427-56.427v0c0-31.164-25.263-56.427-56.427-56.427v0zM548.267 550.187v199.467l199.467-199.467z" />
<glyph unicode="&#xe965;" glyph-name="check-alone" d="M412.267 213.333l-198.933 199.36 70.187 70.187 128.96-128 327.787 327.787 70.4-70.933z" />
<glyph unicode="&#xe966;" glyph-name="collapse" d="M346.453 157.867c7.712-7.668 18.343-12.407 30.080-12.407s22.368 4.74 30.082 12.409l105.385 105.385 105.387-105.387c7.412-6.377 17.129-10.259 27.753-10.259 23.564 0 42.667 19.103 42.667 42.667 0 10.624-3.883 20.341-10.307 27.809l0.047-0.056-135.253 135.253c-7.712 7.668-18.343 12.407-30.080 12.407s-22.368-4.74-30.082-12.409l-135.251-135.251c-7.796-7.733-12.622-18.45-12.622-30.295 0-11.631 4.654-22.176 12.202-29.872l-0.007 0.007zM677.12 738.133c-7.712 7.668-18.343 12.407-30.080 12.407s-22.368-4.74-30.082-12.409l0.002 0.002-104.96-105.387-105.387 105.387c-7.712 7.668-18.343 12.407-30.080 12.407s-22.368-4.74-30.082-12.409l0.002 0.002c-7.795-7.733-12.621-18.45-12.621-30.293s4.826-22.56 12.618-30.291l135.256-135.256c7.712-7.668 18.343-12.407 30.080-12.407s22.368 4.74 30.082 12.409l135.251 135.251c7.923 7.753 12.836 18.555 12.836 30.505 0 11.738-4.74 22.37-12.411 30.084l0.002-0.002z" />
<glyph unicode="&#xe967;" glyph-name="decrease-indent" d="M507.947 236.48h331.84c22.916 0 41.493 18.577 41.493 41.493s-18.577 41.493-41.493 41.493h-331.84c-22.916 0-41.493-18.577-41.493-41.493s18.577-41.493 41.493-41.493v0zM176.107 70.613h663.68c22.916 0 41.493 18.577 41.493 41.493s-18.577 41.493-41.493 41.493h-663.68c-22.916 0-41.493-18.577-41.493-41.493s18.577-41.493 41.493-41.493v0zM134.613 775.787c0.060-22.892 18.602-41.433 41.488-41.493h663.686c22.916 0 41.493 18.577 41.493 41.493s-18.577 41.493-41.493 41.493h-663.68c-22.892-0.060-41.433-18.602-41.493-41.488v-0.006zM507.947 568.427h331.84c0.628-0.034 1.363-0.053 2.103-0.053 22.916 0 41.493 18.577 41.493 41.493s-18.577 41.493-41.493 41.493c-0.74 0-1.475-0.019-2.205-0.058l0.102 0.004h-331.84c-0.628 0.034-1.363 0.053-2.103 0.053-22.916 0-41.493-18.577-41.493-41.493s18.577-41.493 41.493-41.493c0.74 0 1.475 0.019 2.205 0.058l-0.102-0.004zM507.947 402.453h331.84c22.916 0 41.493 18.577 41.493 41.493s-18.577 41.493-41.493 41.493h-331.84c-22.916 0-41.493-18.577-41.493-41.493s18.577-41.493 41.493-41.493v0zM301.973 278.613l-167.36 165.867 167.36 160.747v-326.613z" />
<glyph unicode="&#xe968;" glyph-name="down-arrow" d="M800 566.187c-0.085 28.154-22.928 50.943-51.093 50.943-14.072 0-26.815-5.689-36.055-14.892l-200.851-200.851-200.853 200.853c-9.227 9.227-21.974 14.934-36.053 14.934-28.159 0-50.987-22.828-50.987-50.987 0-14.080 5.707-26.826 14.934-36.053v0l236.907-236.373c9.301-9.283 22.14-15.024 36.32-15.024s27.019 5.741 36.321 15.025l236.372 236.372c9.285 9.201 15.035 21.955 15.040 36.052v0.001z" />
<glyph unicode="&#xe969;" glyph-name="download" d="M771.2 406.827l-241.067-234.667c-6.589-7.315-16.093-11.894-26.667-11.894s-20.078 4.579-26.638 11.862l-0.029 0.032-220.8 234.667c-23.893 25.707-7.147 69.867 26.56 69.867h97.707v218.453c-0.014 0.39-0.022 0.848-0.022 1.307 0 21.338 16.888 38.732 38.028 39.544l0.074 0.002h184.747c21.166-0.871 37.995-18.241 37.995-39.542 0-0.461-0.008-0.921-0.024-1.378l0.002 0.066v-218.453h103.36c33.6 0 50.667-44.16 26.773-69.867z" />
<glyph unicode="&#xe96a;" glyph-name="expand" d="M512 657.92l104.96-104.96c7.412-6.377 17.129-10.259 27.753-10.259 23.564 0 42.667 19.103 42.667 42.667 0 10.624-3.883 20.341-10.307 27.809l0.047-0.056-135.253 135.68c-7.712 7.668-18.343 12.407-30.080 12.407s-22.368-4.74-30.082-12.409l0.002 0.002-135.253-135.68c-9.153-7.872-14.914-19.467-14.914-32.407 0-23.564 19.103-42.667 42.667-42.667 12.94 0 24.535 5.761 32.36 14.858l0.047 0.056zM512 238.080l-104.96 104.96c-7.412 6.377-17.129 10.259-27.753 10.259-23.564 0-42.667-19.103-42.667-42.667 0-10.624 3.883-20.341 10.307-27.809l-0.047 0.056 135.253-135.68c7.712-7.668 18.343-12.407 30.080-12.407s22.368 4.74 30.082 12.409l135.251 135.251c6.377 7.412 10.259 17.129 10.259 27.753 0 23.564-19.103 42.667-42.667 42.667-10.624 0-20.341-3.883-27.809-10.307l0.056 0.047z" />
<glyph unicode="&#xe96b;" glyph-name="history-search" d="M584.107 840.213c-8.331 0.629-18.043 0.987-27.84 0.987-217.144 0-393.173-176.030-393.173-393.173 0-0.009 0-0.019 0-0.028v0.001h-131.093l169.92-169.92 3.093-6.080 176.427 176h-130.987c-0.001 0.343-0.002 0.748-0.002 1.154 0 169.544 137.443 306.987 306.987 306.987s306.987-137.443 306.987-306.987c0-169.544-137.443-306.987-306.987-306.987-71.163 0-136.67 24.214-188.732 64.852l0.681-0.512c-7.39 5.869-16.854 9.415-27.146 9.415-12.047 0-22.959-4.859-30.883-12.725l0.003 0.003c-7.954-7.888-12.878-18.821-12.878-30.904 0-13.692 6.323-25.907 16.208-33.885l0.083-0.065c65.934-51.791 150.124-83.059 241.617-83.059 217.026 0 392.96 175.934 392.96 392.96 0 9.747-0.355 19.411-1.052 28.98l0.075-1.281c-14.949 194.871-169.396 349.318-362.924 364.184l-1.343 0.083zM512.533 622.72v-218.453l186.987-110.933 31.36 53.333-152.853 90.667v185.387z" />
<glyph unicode="&#xe96d;" glyph-name="increase-indent" d="M180.16 74.667h663.68c22.916 0 41.493 18.577 41.493 41.493s-18.577 41.493-41.493 41.493h-663.68c-22.916 0-41.493-18.577-41.493-41.493s18.577-41.493 41.493-41.493v0zM512 240.64h331.84c0.628-0.034 1.363-0.053 2.103-0.053 22.916 0 41.493 18.577 41.493 41.493s-18.577 41.493-41.493 41.493c-0.74 0-1.475-0.019-2.205-0.058l0.102 0.004h-331.84c-0.628 0.034-1.363 0.053-2.103 0.053-22.916 0-41.493-18.577-41.493-41.493s18.577-41.493 41.493-41.493c0.74 0 1.475 0.019 2.205 0.058l-0.102-0.004zM138.667 779.84c0.060-22.892 18.602-41.433 41.488-41.493h663.686c22.916 0 41.493 18.577 41.493 41.493s-18.577 41.493-41.493 41.493h-663.68c-22.892-0.060-41.433-18.602-41.493-41.488v-0.006zM512 572.48h331.84c0.628-0.034 1.363-0.053 2.103-0.053 22.916 0 41.493 18.577 41.493 41.493s-18.577 41.493-41.493 41.493c-0.74 0-1.475-0.019-2.205-0.058l0.102 0.004h-331.84c-0.628 0.034-1.363 0.053-2.103 0.053-22.916 0-41.493-18.577-41.493-41.493s18.577-41.493 41.493-41.493c0.74 0 1.475 0.019 2.205 0.058l-0.102-0.004zM512 406.507h331.84c22.916 0 41.493 18.577 41.493 41.493s-18.577 41.493-41.493 41.493h-331.84c-22.916 0-41.493-18.577-41.493-41.493s18.577-41.493 41.493-41.493v0zM138.667 611.307l168.747-167.253-168.747-162.027v329.28z" />
<glyph unicode="&#xe96e;" glyph-name="inline-image" d="M832 199.147v497.707c-0.121 39.244-31.902 71.026-71.135 71.147h-497.719c-39.244-0.121-71.026-31.902-71.147-71.135v-497.719c0.121-39.244 31.902-71.026 71.135-71.147h497.719c39.244 0.121 71.026 31.902 71.147 71.135v0.012zM401.813 377.6l74.667-89.92 110.187 141.867c3.307 4.298 8.453 7.041 14.24 7.041s10.933-2.743 14.209-6.999l0.031-0.042 124.8-166.4c2.284-2.952 3.662-6.706 3.662-10.782 0-9.779-7.928-17.707-17.707-17.707-0.2 0-0.399 0.003-0.597 0.010l0.029-0.001h-426.667c-0.020 0-0.043 0-0.066 0-9.779 0-17.707 7.928-17.707 17.707 0 4.215 1.473 8.086 3.932 11.127l-0.026-0.033 88.533 113.707c3.199 4.586 8.45 7.549 14.392 7.549 5.758 0 10.867-2.782 14.055-7.076l0.033-0.047z" />
<glyph unicode="&#xe970;" glyph-name="not-spam" d="M856.853 490.667l-302.187 302.187c-11.036 11.012-26.27 17.821-43.093 17.821s-32.057-6.809-43.094-17.822l0.001 0.001-301.333-302.187c-11.012-11.036-17.821-26.27-17.821-43.093s6.809-32.057 17.822-43.094l-0.001 0.001 302.187-301.333c11.036-11.012 26.27-17.821 43.093-17.821s32.057 6.809 43.094 17.822l-0.001-0.001 301.333 302.187c10.76 10.992 17.399 26.054 17.399 42.667s-6.64 31.675-17.41 42.677l0.011-0.011zM451.52 305.493l-120.853 121.173 42.667 42.667 78.080-77.867 199.253 198.613 42.667-42.667z" />
<glyph unicode="&#xe971;" glyph-name="other-mail" d="M828.16 462.080l-302.4 302.4c-12.031 12.060-28.668 19.521-47.047 19.521-0.11 0-0.22 0-0.33-0.001h-234.65c-37.089-0.061-67.139-30.111-67.2-67.194v-235.206c0-0.054 0-0.119 0-0.183 0-18.579 7.588-35.386 19.834-47.491l0.006-0.006 301.867-302.4c12.031-12.060 28.668-19.521 47.047-19.521 0.11 0 0.22 0 0.33 0.001h-0.017c0.119-0.001 0.259-0.001 0.4-0.001 18.411 0 35.047 7.597 46.946 19.826l0.014 0.015 234.667 234.667c12.245 11.913 19.841 28.55 19.841 46.96 0 0.141 0 0.281-0.001 0.421v-0.022c0.004 0.279 0.007 0.608 0.007 0.937 0 18.414-7.371 35.106-19.324 47.287l0.010-0.011zM293.653 616c-0.032 0-0.069 0-0.107 0-27.865 0-50.453 22.589-50.453 50.453s22.589 50.453 50.453 50.453c27.865 0 50.453-22.589 50.453-50.453 0-0.037 0-0.075 0-0.112v0.006c0-27.806-22.541-50.347-50.347-50.347v0z" />
<glyph unicode="&#xe972;" glyph-name="pop-in" d="M718.187 207.36h-412.373c-19.028 0-34.453 15.425-34.453 34.453v0 412.373c0 19.028 15.425 34.453 34.453 34.453v0h171.84c18.969 0 34.347 15.378 34.347 34.347s-15.378 34.347-34.347 34.347h-206.293c-37.938 0-68.693-30.755-68.693-68.693v0-481.28c0.121-37.89 30.804-68.572 68.682-68.693h481.292c37.89 0.121 68.572 30.804 68.693 68.682v206.305c0 18.969-15.378 34.347-34.347 34.347s-34.347-15.378-34.347-34.347v0-171.84c0-19.028-15.425-34.453-34.453-34.453v0zM620.907 350.613c0 0 0 0 0 0.001 0 18.953-15.304 34.332-34.228 34.453h-89.185l313.813 313.707c5.636 6.1 9.092 14.286 9.092 23.279 0 18.969-15.378 34.347-34.347 34.347-8.993 0-17.179-3.456-23.302-9.113l0.023 0.021-313.707-313.813v89.173c0.034 0.573 0.053 1.242 0.053 1.916 0 19.028-15.425 34.453-34.453 34.453s-34.453-15.425-34.453-34.453c0-0.674 0.019-1.344 0.058-2.008l-0.004 0.092v-172.053c0.060-18.945 15.402-34.286 34.341-34.347h172.059c18.899 0.121 34.18 15.439 34.24 34.341v0.006z" />
<glyph unicode="&#xe973;" glyph-name="popover-activity" d="M576 725.333c47.128 0 85.333 38.205 85.333 85.333s-38.205 85.333-85.333 85.333c-47.128 0-85.333-38.205-85.333-85.333v0c0-47.128 38.205-85.333 85.333-85.333v0zM441.173 213.333l24.32 106.667 89.173-85.333v-213.333c0-23.564 19.103-42.667 42.667-42.667s42.667 19.103 42.667 42.667v0 240.64c0 0.030 0 0.066 0 0.102 0 24.281-10.142 46.194-26.42 61.734l-0.033 0.032-62.72 60.16 25.173 128c46.949-53.482 111.342-90.645 184.22-102.582l1.806-0.244c1.859-0.287 4.004-0.451 6.187-0.451 23.577 0 42.691 19.113 42.691 42.691 0 21.394-15.738 39.113-36.268 42.211l-0.236 0.029c-62.972 9.894-115.708 46.903-146.677 98.473l-0.523 0.94-42.667 68.267c-15.162 24.949-41.791 41.614-72.385 42.663l-0.148 0.004c-12.8 0-21.333-4.267-34.133-4.267l-169.387-71.68c-31.081-13.212-52.48-43.485-52.48-78.756 0-0.062 0-0.125 0-0.187v0.010-101.12c0-23.564 19.103-42.667 42.667-42.667s42.667 19.103 42.667 42.667v0 102.4l76.8 29.867-67.84-345.6-167.253 34.133c-2.567 0.549-5.517 0.863-8.54 0.863-20.547 0-37.702-14.524-41.758-33.866l-0.049-0.278v-1.707c-0.549-2.567-0.863-5.517-0.863-8.54 0-20.547 14.524-37.702 33.866-41.758l0.278-0.049 175.36-34.987c4.995-1.038 10.735-1.633 16.614-1.633 40.447 0 74.321 28.14 83.113 65.91l0.113 0.576z" />
<glyph unicode="&#xe974;" glyph-name="popover-animals" d="M298.667 554.667c0-58.91-47.756-106.667-106.667-106.667s-106.667 47.756-106.667 106.667c0 58.91 47.756 106.667 106.667 106.667s106.667-47.756 106.667-106.667zM490.667 725.333c0-58.91-47.756-106.667-106.667-106.667s-106.667 47.756-106.667 106.667c0 58.91 47.756 106.667 106.667 106.667s106.667-47.756 106.667-106.667zM746.667 725.333c0-58.91-47.756-106.667-106.667-106.667s-106.667 47.756-106.667 106.667c0 58.91 47.756 106.667 106.667 106.667s106.667-47.756 106.667-106.667zM938.667 554.667c0-58.91-47.756-106.667-106.667-106.667s-106.667 47.756-106.667 106.667c0 58.91 47.756 106.667 106.667 106.667s106.667-47.756 106.667-106.667zM739.84 325.973c-37.12 43.52-68.267 80.64-105.813 124.16-19.39 24.635-44.539 43.892-73.464 55.878l-1.202 0.442c-3.947 1.505-8.673 2.835-13.542 3.755l-0.538 0.085c-8.29 1.134-17.871 1.782-27.604 1.782-1.996 0-3.986-0.027-5.968-0.081l0.292 0.006c-1.668 0.056-3.63 0.088-5.598 0.088-9.924 0-19.659-0.808-29.144-2.361l1.035 0.14c-5.407-1.005-10.133-2.335-14.676-4.036l0.596 0.196c-30.077-12.532-55.203-31.768-74.376-55.94l-0.291-0.38c-37.547-43.52-68.267-80.64-105.813-124.16-55.893-55.893-124.587-117.333-111.787-204.373 12.373-43.52 43.52-86.613 99.413-98.987 31.147-6.4 130.56 18.773 236.373 18.773h7.68c105.813 0 205.227-24.747 236.373-18.773 55.893 12.373 87.040 55.893 99.413 98.987 12.8 87.040-55.467 148.907-111.36 204.8z" />
<glyph unicode="&#xe975;" glyph-name="popover-flags" d="M598.4 704l-30.827 61.973c-7.182 14.031-21.541 23.468-38.103 23.468-0.104 0-0.209 0-0.313-0.001h-273.157c-23.564 0-42.667-19.103-42.667-42.667v0-641.6c0-23.564 19.103-42.667 42.667-42.667s42.667 19.103 42.667 42.667v0 256h213.333l32-61.547c7.163-13.992 21.462-23.415 37.966-23.467h230.407c23.564 0 42.667 19.103 42.667 42.667v0 341.333c0 23.564-19.103 42.667-42.667 42.667v0z" />
<glyph unicode="&#xe976;" glyph-name="popover-food-and-drink" d="M936 746.667h-166.72v128c0 23.564-19.103 42.667-42.667 42.667s-42.667-19.103-42.667-42.667v0-128h-166.827c-0.067 0-0.146 0.001-0.225 0.001-23.564 0-42.667-19.103-42.667-42.667 0-1.541 0.082-3.062 0.241-4.56l-0.016 0.186 5.547-52.053c156.8-36.373 289.28-147.84 289.28-328.64l0.96-341.973h72.427c35.976 0.427 65.482 27.571 69.621 62.492l0.032 0.335 65.813 659.52c0.165 1.409 0.259 3.040 0.259 4.694 0 23.468-18.946 42.51-42.378 42.666h-0.015zM641.067 62.4h-555.733c-23.564 0-42.667-19.103-42.667-42.667s19.103-42.667 42.667-42.667v0h555.733c23.564 0 42.667 19.103 42.667 42.667s-19.103 42.667-42.667 42.667v0zM89.707 318.933h547.093c0.164-0.002 0.357-0.004 0.55-0.004 23.564 0 42.667 19.103 42.667 42.667 0 2.412-0.2 4.777-0.585 7.080l0.034-0.249c-28.053 138.133-172.16 207.573-316.16 207.573s-288-69.227-315.84-207.36c-0.372-2.117-0.585-4.554-0.585-7.040 0-23.564 19.103-42.667 42.667-42.667 0.056 0 0.111 0 0.167 0h-0.009zM641.067 233.6h-555.733c-23.564 0-42.667-19.103-42.667-42.667s19.103-42.667 42.667-42.667v0h555.733c23.564 0 42.667 19.103 42.667 42.667s-19.103 42.667-42.667 42.667v0z" />
<glyph unicode="&#xe977;" glyph-name="popover-food" d="M888.853 713.067h-148.267v114.027c0 20.972-17.001 37.973-37.973 37.973s-37.973-17.001-37.973-37.973v0-114.027h-148.16c-21.131-0.101-38.223-17.254-38.223-38.4 0-1.164 0.052-2.316 0.153-3.454l-0.011 0.147 4.587-46.080c139.84-32 257.6-131.413 257.6-292.16l0.853-304h64c32.305 0.186 58.859 24.561 62.479 55.92l0.028 0.293 58.453 586.667c0.092 0.991 0.145 2.143 0.145 3.307 0 20.83-16.867 37.721-37.688 37.76h-0.004zM626.667 105.067h-493.973c-0.602 0.034-1.306 0.053-2.015 0.053-21.031 0-38.080-17.049-38.080-38.080s17.049-38.080 38.080-38.080c0.709 0 1.413 0.019 2.112 0.058l-0.097-0.004h493.973c20.146 1.1 36.065 17.704 36.065 38.027s-15.919 36.926-35.968 38.022l-0.097 0.004zM136 333.013h486.4c0.163-0.003 0.356-0.004 0.549-0.004 20.795 0 37.653 16.858 37.653 37.653 0 2.263-0.2 4.479-0.582 6.631l0.033-0.227c-24.32 122.88-152.32 184.427-280.427 184.427s-256-61.547-280.747-184.32c-0.324-1.86-0.509-4.002-0.509-6.187 0-20.913 16.953-37.867 37.867-37.867 0.066 0 0.133 0 0.199 0.001h-0.010zM626.667 256.96h-493.973c-20.972 0-37.973-17.001-37.973-37.973s17.001-37.973 37.973-37.973v0h493.973c20.972 0 37.973 17.001 37.973 37.973s-17.001 37.973-37.973 37.973v0z" />
<glyph unicode="&#xe978;" glyph-name="popover-nature" d="M298.667 554.667c0-58.91-47.756-106.667-106.667-106.667s-106.667 47.756-106.667 106.667c0 58.91 47.756 106.667 106.667 106.667s106.667-47.756 106.667-106.667zM490.667 725.333c0-58.91-47.756-106.667-106.667-106.667s-106.667 47.756-106.667 106.667c0 58.91 47.756 106.667 106.667 106.667s106.667-47.756 106.667-106.667zM746.667 725.333c0-58.91-47.756-106.667-106.667-106.667s-106.667 47.756-106.667 106.667c0 58.91 47.756 106.667 106.667 106.667s106.667-47.756 106.667-106.667zM938.667 554.667c0-58.91-47.756-106.667-106.667-106.667s-106.667 47.756-106.667 106.667c0 58.91 47.756 106.667 106.667 106.667s106.667-47.756 106.667-106.667zM739.84 325.973c-37.12 43.52-68.267 80.64-105.813 124.16-19.39 24.635-44.539 43.892-73.464 55.878l-1.202 0.442c-3.947 1.505-8.673 2.835-13.542 3.755l-0.538 0.085c-8.29 1.134-17.871 1.782-27.604 1.782-1.996 0-3.986-0.027-5.968-0.081l0.292 0.006c-1.668 0.056-3.63 0.088-5.598 0.088-9.924 0-19.659-0.808-29.144-2.361l1.035 0.14c-5.407-1.005-10.133-2.335-14.676-4.036l0.596 0.196c-30.077-12.532-55.203-31.768-74.376-55.94l-0.291-0.38c-37.547-43.52-68.267-80.64-105.813-124.16-55.893-55.893-124.587-117.333-111.787-204.373 12.373-43.52 43.52-86.613 99.413-98.987 31.147-6.4 130.56 18.773 236.373 18.773h7.68c105.813 0 205.227-24.747 236.373-18.773 55.893 12.373 87.040 55.893 99.413 98.987 12.8 87.040-55.467 148.907-111.36 204.8z" />
<glyph unicode="&#xe979;" glyph-name="popover-objects" d="M473.493 525.973c-32.493 15.909-70.709 25.212-111.099 25.212-142.151 0-257.387-115.236-257.387-257.387s115.236-257.387 257.387-257.387c142.151 0 257.387 115.236 257.387 257.387 0 40.31-9.266 78.455-25.785 112.422l0.671-1.528 131.84 131.84 60.693-60.587c15.514-15.487 36.932-25.065 60.587-25.065 47.363 0 85.758 38.395 85.758 85.758 0 23.708-9.62 45.169-25.17 60.692l-60.588 60.588c15.406 15.472 24.93 36.81 24.93 60.373 0 47.259-38.311 85.57-85.57 85.57-23.696 0-45.142-9.632-60.637-25.193l-0.003-0.003zM423.467 233.493c-15.417-15.295-36.651-24.747-60.092-24.747-47.128 0-85.333 38.205-85.333 85.333s38.205 85.333 85.333 85.333c23.441 0 44.675-9.452 60.097-24.752l-0.006 0.006c15.436-15.537 24.976-36.948 24.976-60.587s-9.54-45.049-24.981-60.591l0.005 0.005z" />
<glyph unicode="&#xe97a;" glyph-name="popover-people" d="M661.333 618.667c35.346 0 64-28.654 64-64s-28.654-64-64-64c-35.346 0-64 28.654-64 64v0c0 35.346 28.654 64 64 64v0zM362.667 618.667c35.346 0 64-28.654 64-64s-28.654-64-64-64c-35.346 0-64 28.654-64 64v0c0 35.346 28.654 64 64 64v0zM512 874.667c-235.641 0-426.667-191.025-426.667-426.667s191.025-426.667 426.667-426.667c235.641 0 426.667 191.025 426.667 426.667v0c0 235.641-191.025 426.667-426.667 426.667v0zM512 106.667c-188.513 0-341.333 152.82-341.333 341.333s152.82 341.333 341.333 341.333c188.513 0 341.333-152.82 341.333-341.333v0c0-188.513-152.82-341.333-341.333-341.333v0zM700.16 367.36c-4.739 2.927-10.483 4.662-16.632 4.662-11.508 0-21.596-6.074-27.235-15.191l-0.079-0.137c-30.575-48.139-83.611-79.622-144-79.622s-113.425 31.483-143.59 78.931l-0.41 0.691c-5.89 7.97-15.252 13.081-25.809 13.081-17.673 0-32-14.327-32-32 0-5.405 1.34-10.497 3.706-14.962l-0.084 0.174c41.915-66.644 115.061-110.286 198.4-110.286s156.485 43.641 197.831 109.317l0.569 0.968c3.046 4.81 4.854 10.665 4.854 16.943 0 11.586-6.158 21.734-15.379 27.35l-0.141 0.080z" />
<glyph unicode="&#xe97b;" glyph-name="popover-smile" d="M661.333 618.667c35.346 0 64-28.654 64-64s-28.654-64-64-64c-35.346 0-64 28.654-64 64v0c0 35.346 28.654 64 64 64v0zM362.667 618.667c35.346 0 64-28.654 64-64s-28.654-64-64-64c-35.346 0-64 28.654-64 64v0c0 35.346 28.654 64 64 64v0zM512 874.667c-235.641 0-426.667-191.025-426.667-426.667s191.025-426.667 426.667-426.667c235.641 0 426.667 191.025 426.667 426.667v0c0 235.641-191.025 426.667-426.667 426.667v0zM512 106.667c-188.513 0-341.333 152.82-341.333 341.333s152.82 341.333 341.333 341.333c188.513 0 341.333-152.82 341.333-341.333v0c0-188.513-152.82-341.333-341.333-341.333v0zM700.16 367.36c-4.739 2.927-10.483 4.662-16.632 4.662-11.508 0-21.596-6.074-27.235-15.191l-0.079-0.137c-30.575-48.139-83.611-79.622-144-79.622s-113.425 31.483-143.59 78.931l-0.41 0.691c-5.89 7.97-15.252 13.081-25.809 13.081-17.673 0-32-14.327-32-32 0-5.405 1.34-10.497 3.706-14.962l-0.084 0.174c41.915-66.644 115.061-110.286 198.4-110.286s156.485 43.641 197.831 109.317l0.569 0.968c3.046 4.81 4.854 10.665 4.854 16.943 0 11.586-6.158 21.734-15.379 27.35l-0.141 0.080z" />
<glyph unicode="&#xe97c;" glyph-name="popover-symbols" d="M802.88 751.147c-99.947 68.16-223.36 36.373-290.027-41.6-66.56 77.973-189.973 110.080-289.92 41.6-51.892-36.479-86.035-95.179-88.522-161.971l-0.011-0.375c-5.333-146.88 124.907-264.64 323.627-445.12l3.733-3.413c13.388-12.231 31.286-19.723 50.933-19.723s37.545 7.492 50.992 19.776l-0.058-0.053 4.16 3.84c198.72 180.48 328.213 298.133 323.627 445.013-2.621 67.041-36.734 125.599-87.876 161.588l-0.657 0.438z" />
<glyph unicode="&#xe97d;" glyph-name="popover-travel-and-places" d="M896.853 337.067c-0.281 15.931-8.642 29.85-21.15 37.863l-0.183 0.11-320 200.107v234.667c0 35.346-28.654 64-64 64s-64-28.654-64-64v0-234.667l-320.853-200.107c-12.761-8.056-21.156-22.015-21.333-37.947v-0.026c0.078-24.684 20.105-44.664 44.8-44.664 4.721 0 9.271 0.73 13.544 2.084l-0.317-0.087 283.307 88.747v-234.667l-76.8-57.6c-5.196-3.762-8.538-9.81-8.538-16.638 0-0.151 0.002-0.301 0.005-0.451v0.022-25.173c0-11.782 9.551-21.333 21.333-21.333 2.129 0 4.184 0.312 6.124 0.892l-0.151-0.039 122.027 34.987 122.027-34.987c1.789-0.542 3.845-0.853 5.973-0.853 11.782 0 21.333 9.551 21.333 21.333v0 25.173c0.003 0.128 0.004 0.278 0.004 0.429 0 6.828-3.341 12.876-8.478 16.597l-0.060 0.041-76.8 57.6v234.667l284.16-88.747c3.956-1.267 8.506-1.997 13.227-1.997 24.694 0 44.722 19.98 44.8 44.656v0.007z" />
<glyph unicode="&#xe97e;" glyph-name="popover-travel" d="M896.853 337.067c-0.281 15.931-8.642 29.85-21.15 37.863l-0.183 0.11-320 200.107v234.667c0 35.346-28.654 64-64 64s-64-28.654-64-64v0-234.667l-320.853-200.107c-12.761-8.056-21.156-22.015-21.333-37.947v-0.026c0.078-24.684 20.105-44.664 44.8-44.664 4.721 0 9.271 0.73 13.544 2.084l-0.317-0.087 283.307 88.747v-234.667l-76.8-57.6c-5.196-3.762-8.538-9.81-8.538-16.638 0-0.151 0.002-0.301 0.005-0.451v0.022-25.173c0-11.782 9.551-21.333 21.333-21.333 2.129 0 4.184 0.312 6.124 0.892l-0.151-0.039 122.027 34.987 122.027-34.987c1.789-0.542 3.845-0.853 5.973-0.853 11.782 0 21.333 9.551 21.333 21.333v0 25.173c0.003 0.128 0.004 0.278 0.004 0.429 0 6.828-3.341 12.876-8.478 16.597l-0.060 0.041-76.8 57.6v234.667l284.16-88.747c3.956-1.267 8.506-1.997 13.227-1.997 24.694 0 44.722 19.98 44.8 44.656v0.007z" />
<glyph unicode="&#xe97f;" d="M921.6 80.302c0.007-0.252 0.010-0.549 0.010-0.847 0-9.64-3.918-18.366-10.249-24.67l-0.001-0.001c-6.34-5.302-14.58-8.521-23.572-8.521-0.108 0-0.216 0-0.324 0.001h-750.411c-9.060 0.253-17.335 3.418-23.971 8.588l0.091-0.069c-6.333 6.306-10.252 15.032-10.252 24.673 0 0.319 0.004 0.637 0.013 0.953l-0.001-0.047v499.712h818.668v-499.712z" />
<glyph unicode="&#xe980;" d="M921.6 580.035l-115.978-83.558-271.094-194.437c-6.335-4.793-14.345-7.677-23.030-7.677s-16.695 2.884-23.126 7.747l0.096-0.070-385.536 277.996 115.978 83.579 252.416 156.221 18.76 13.64c6.338 4.784 14.348 7.662 23.030 7.662s16.692-2.878 23.127-7.733l18.765-13.569 121.098-62.423 59.699-42.639 69.919-51.2z" />
<glyph unicode="&#xe981;" d="M769.925 842.957h-517.509c-19.023-0.047-34.427-15.479-34.427-34.509 0 0 0 0 0 0v0-314.327l268.657-193.843c6.334-4.785 14.34-7.665 23.020-7.665s16.686 2.879 23.117 7.735l-0.097-0.070 271.647 194.765v313.405c0 0 0 0 0 0 0 19.023-15.392 34.45-34.401 34.509h-0.006z" />
<glyph unicode="&#xe982;" d="M657.408 599.921c0-61.645-34.611-106.25-82.719-106.25-23.368 0-40.407 10.363-41.452 25.825 0 1.229 0.164 2.273 0.164 3.154l-3.154-0.512c-8.083-14.988-23.671-25.002-41.597-25.002-0.432 0-0.862 0.006-1.29 0.017l0.063-0.001c-31.437 0-52.531 24.76-52.531 61.809 0 47.78 30.577 84.664 69.919 84.664 20.48 0 37.396-11.244 41.267-28.099l3.154-0.184 4.567 21.955h36.188l-20.029-92.733c-0.525-2.257-0.844-4.86-0.88-7.532v-0.026c0-8.602 5.263-13.681 14.049-13.681 23.183 0 42.332 34.243 42.332 75.325 0 54.804-41.452 91.341-103.793 91.341-72.356 0-128.041-56.566-128.041-129.966 0-65.167 46.899-108.012 118.374-107.848 11.407 0 24.412 1.413 28.672 2.99l-5.98-28.979c-8.981-1.759-19.308-2.765-29.871-2.765-0.075 0-0.151 0-0.226 0h0.012c-84.828 0-142.971 55.296-142.971 135.762 0 91.505 68.854 159.457 162.284 159.457 79.032 0 133.489-48.456 133.489-118.723zM511.283 609.792c-20.48 0-36.7-21.606-36.7-49.152 0-19.149 9.994-31.089 25.805-31.089 20.48 0 36.864 21.77 36.864 49.521 0.020 18.76-9.994 30.72-25.969 30.72z" />
<glyph unicode="&#xe983;" d="M159.457 808.899h719.421c13.415 0 24.289-10.875 24.289-24.289v-149.545c0-13.415-10.875-24.289-24.289-24.289h-719.421c-13.415 0-24.289 10.875-24.289 24.289v149.545c0 13.415 10.875 24.289 24.289 24.289z" />
<glyph unicode="&#xe984;" d="M157.471 535.081h238.1c12.317 0 22.303-9.985 22.303-22.303v-409.518c0-12.317-9.985-22.303-22.303-22.303h-238.1c-12.317 0-22.303 9.985-22.303 22.303v409.518c0 12.317 9.985 22.303 22.303 22.303z" />
<glyph unicode="&#xe985;" d="M509.665 535.081h366.285c15.032 0 27.218-12.186 27.218-27.218v-399.688c0-15.032-12.186-27.218-27.218-27.218h-366.285c-15.032 0-27.218 12.186-27.218 27.218v399.688c0 15.032 12.186 27.218 27.218 27.218z" />
<glyph unicode="&#xe986;" d="M796.099 709.468h-349.635l-87.347 87.388h-218.481c-48.198-0.162-87.226-39.191-87.388-87.373v-524.303c0.162-48.198 39.191-87.226 87.373-87.388h677.309c37.13 0 65.536 28.406 65.536 65.536v458.752c-0.162 48.19-39.179 87.214-87.351 87.388h-0.017z" />
<glyph unicode="&#xe987;" d="M207.462 647.148h530.412c36.986 0 66.97-29.983 66.97-66.97v-317.911c0-36.986-29.983-66.97-66.97-66.97h-530.412c-36.986 0-66.97 29.983-66.97 66.97v317.911c0 36.986 29.983 66.97 66.97 66.97z" />
<glyph unicode="&#xe988;" d="M887.828 578.376h-587.674c-41.574 0-78.684-30.536-85.258-72.11l-74.26-408.474h692.572c41.574 0 78.705 30.536 85.258 72.11l54.62 305.869c10.936 52.347-30.638 102.605-85.258 102.605z" />
</font>
</defs>
</svg>
